<?xml version="1.0" encoding="utf-8"?>
<!-- Generator: Adobe Illustrator 17.0.0, SVG Export Plug-In . SVG Version: 6.00 Build 0)  -->
<!DOCTYPE svg PUBLIC "-//W3C//DTD SVG 1.1//EN" "http://www.w3.org/Graphics/SVG/1.1/DTD/svg11.dtd">
<svg version="1.1" id="图层_1" xmlns="http://www.w3.org/2000/svg" xmlns:xlink="http://www.w3.org/1999/xlink" x="0px" y="0px"
	 width="1024px" height="1024px" viewBox="0 0 1024 1024" enable-background="new 0 0 1024 1024" xml:space="preserve">
<g>
	<path d="M816.587,772.032c-0.445-0.037-0.895-0.057-1.346-0.057c-0.006,0-0.012,0-0.019,0c-50.153,0.057-90.956,40.9-90.956,91.047
		c0,50.151,40.812,90.953,90.975,90.953c50.191,0,91.025-40.802,91.025-90.953C906.267,813.295,866.159,772.756,816.587,772.032z"/>
	<path d="M337.357,772.032c-0.452-0.038-0.908-0.042-1.364-0.057c-50.153,0.057-90.956,40.9-90.956,91.047
		c0,50.151,40.811,90.953,90.974,90.953c50.192,0,91.026-40.802,91.026-90.953C427.037,813.295,386.929,772.756,337.357,772.032z"/>
	<path d="M956.212,240.491c-3.04-3.591-7.507-5.663-12.212-5.663H254.037L236.202,78.46c-0.922-8.083-7.762-14.187-15.897-14.187H80
		c-8.836,0-16,7.164-16,16s7.164,16,16,16h126.026l18.419,161.492c0,0.002,0.001,0.004,0.001,0.006l49.142,432.756
		c0.918,8.086,7.76,14.194,15.898,14.194H870.69c7.817,0,14.489-5.648,15.78-13.358l73.31-437.893
		C960.558,248.829,959.252,244.082,956.212,240.491z"/>
</g>
</svg>
