<?xml version="1.0" encoding="utf-8"?>
<!-- Generator: Adobe Illustrator 17.0.0, SVG Export Plug-In . SVG Version: 6.00 Build 0)  -->
<!DOCTYPE svg PUBLIC "-//W3C//DTD SVG 1.1//EN" "http://www.w3.org/Graphics/SVG/1.1/DTD/svg11.dtd">
<svg version="1.1" id="图层_1" xmlns="http://www.w3.org/2000/svg" xmlns:xlink="http://www.w3.org/1999/xlink" x="0px" y="0px"
	 width="1024px" height="1024px" viewBox="0 0 1024 1024" enable-background="new 0 0 1024 1024" xml:space="preserve">
<g>
	<path d="M257.34,93.771C150.732,93.771,64,180.502,64,287.111s86.732,193.34,193.34,193.34s193.34-86.732,193.34-193.34
		S363.949,93.771,257.34,93.771z"/>
	<path d="M257.34,571.637C150.732,571.637,64,658.368,64,764.977s86.732,193.34,193.34,193.34s193.34-86.731,193.34-193.34
		S363.949,571.637,257.34,571.637z"/>
	<path d="M739.377,571.637c-106.608,0-193.341,86.731-193.341,193.34s86.732,193.34,193.341,193.34s193.34-86.731,193.34-193.34
		S845.985,571.637,739.377,571.637z"/>
	<path d="M955.313,274.993L750.69,70.369c-3-3-7.07-4.686-11.313-4.686s-8.313,1.686-11.313,4.686L523.439,274.993
		c-3.001,3.001-4.687,7.07-4.687,11.314s1.686,8.313,4.687,11.314l204.624,204.624c3,3,7.07,4.686,11.313,4.686
		s8.313-1.686,11.313-4.686l204.623-204.624C961.563,291.372,961.563,281.241,955.313,274.993z"/>
</g>
</svg>
