<?xml version="1.0" encoding="utf-8"?>
<!-- Generator: Adobe Illustrator 17.0.0, SVG Export Plug-In . SVG Version: 6.00 Build 0)  -->
<!DOCTYPE svg PUBLIC "-//W3C//DTD SVG 1.1//EN" "http://www.w3.org/Graphics/SVG/1.1/DTD/svg11.dtd">
<svg version="1.1" id="图层_1" xmlns="http://www.w3.org/2000/svg" xmlns:xlink="http://www.w3.org/1999/xlink" x="0px" y="0px"
	 width="1024px" height="1024px" viewBox="0 0 1024 1024" enable-background="new 0 0 1024 1024" xml:space="preserve">
<g>
	<path d="M951.943,450.058c-4.983-2.851-11.109-2.813-16.056,0.098L723.097,575.327v-111.38c0-8.836-7.163-16-16-16H80
		c-8.836,0-16,7.164-16,16v480.035c0,8.837,7.164,16,16,16h627.097c8.837,0,16-7.163,16-16v-111.38l212.791,125.171
		c2.503,1.473,5.307,2.209,8.112,2.209c2.74,0,5.482-0.703,7.943-2.111c4.982-2.85,8.057-8.149,8.057-13.889V463.947
		C960,458.208,956.926,452.907,951.943,450.058z M928,916.007L715.209,790.836c-4.947-2.908-11.074-2.947-16.056-0.098
		c-4.982,2.85-8.057,8.149-8.057,13.889v123.354H96V479.947h595.097v123.355c0,5.739,3.074,11.039,8.057,13.889
		s11.107,2.811,16.056-0.098L928,491.921V916.007z"/>
	<path d="M511.962,317.016c69.733,0,126.466-56.67,126.466-126.327c0-69.163-55.873-125.53-124.876-126.386
		c-0.531-0.053-1.093-0.074-1.608-0.079c-33.792,0.039-65.535,13.2-89.382,37.059c-23.853,23.865-36.989,55.617-36.989,89.406
		C385.573,260.346,442.271,317.016,511.962,317.016z M510.593,96.235c0.451,0.038,0.908,0.058,1.369,0.058
		c52.089,0,94.466,42.346,94.466,94.396c0,52.012-42.377,94.327-94.466,94.327c-52.046,0-94.389-42.315-94.389-94.327
		C417.573,139.123,459.175,97.038,510.593,96.235z"/>
	<path d="M176.004,382.094c61.483,0,111.503-49.966,111.503-111.384c0-60.951-49.211-110.631-110.009-111.434
		c-0.5-0.047-1.006-0.101-1.513-0.07c-61.437,0.07-111.419,50.09-111.419,111.503C64.567,332.127,114.558,382.094,176.004,382.094z
		 M174.749,191.218c0.415,0.032,0.833,0.048,1.256,0.048c43.838,0,79.503,35.638,79.503,79.443
		c0,43.772-35.665,79.384-79.503,79.384c-43.802,0-79.438-35.611-79.438-79.384C96.567,227.346,131.521,191.949,174.749,191.218z"/>
</g>
</svg>
