<?xml version="1.0" encoding="utf-8"?>
<!-- Generator: Adobe Illustrator 17.0.0, SVG Export Plug-In . SVG Version: 6.00 Build 0)  -->
<!DOCTYPE svg PUBLIC "-//W3C//DTD SVG 1.1//EN" "http://www.w3.org/Graphics/SVG/1.1/DTD/svg11.dtd">
<svg version="1.1" id="图层_1" xmlns="http://www.w3.org/2000/svg" xmlns:xlink="http://www.w3.org/1999/xlink" x="0px" y="0px"
	 width="1024px" height="1024px" viewBox="0 0 1024 1024" enable-background="new 0 0 1024 1024" xml:space="preserve">
<g>
	<path d="M944,960H655.689c-8.837,0-16-7.163-16-16V673H384.427v271c0,8.837-7.164,16-16,16H80c-8.836,0-16-7.163-16-16V394.249
		c0-5.118,2.449-9.928,6.587-12.938L502.554,67.062c5.611-4.082,13.213-4.083,18.824,0L953.411,381.31
		c4.14,3.011,6.589,7.82,6.589,12.939V944C960,952.837,952.837,960,944,960z M671.689,928H928V402.396L511.967,99.785L96,402.395
		V928h256.427V657c0-8.837,7.164-16,16-16h287.263c8.837,0,16,7.163,16,16V928z"/>
</g>
</svg>
