<?xml version="1.0" encoding="utf-8"?>
<!-- Generator: Adobe Illustrator 17.0.0, SVG Export Plug-In . SVG Version: 6.00 Build 0)  -->
<!DOCTYPE svg PUBLIC "-//W3C//DTD SVG 1.1//EN" "http://www.w3.org/Graphics/SVG/1.1/DTD/svg11.dtd">
<svg version="1.1" id="图层_1" xmlns="http://www.w3.org/2000/svg" xmlns:xlink="http://www.w3.org/1999/xlink" x="0px" y="0px"
	 width="1024px" height="1024px" viewBox="0 0 1024 1024" enable-background="new 0 0 1024 1024" xml:space="preserve">
<path d="M512,960c-60.473,0-119.145-11.848-174.387-35.213c-53.35-22.564-101.259-54.865-142.397-96.003
	c-41.139-41.139-73.439-89.048-96.003-142.397C75.847,631.145,64,572.473,64,512s11.847-119.145,35.213-174.387
	c22.564-53.35,54.865-101.259,96.003-142.397c41.138-41.139,89.047-73.439,142.397-96.003C392.855,75.847,451.527,64,512,64
	s119.145,11.847,174.387,35.213c53.35,22.564,101.259,54.865,142.397,96.003c41.138,41.138,73.438,89.047,96.003,142.397
	C948.152,392.855,960,451.527,960,512s-11.848,119.145-35.213,174.387c-22.564,53.35-54.865,101.259-96.003,142.397
	c-41.139,41.138-89.048,73.438-142.397,96.003C631.145,948.152,572.473,960,512,960z M512,96C282.617,96,96,282.617,96,512
	c0,229.383,186.617,416,416,416c229.383,0,416-186.617,416-416C928,282.617,741.383,96,512,96z"/>
</svg>
