<?xml version="1.0" encoding="utf-8"?>
<!-- Generator: Adobe Illustrator 17.0.0, SVG Export Plug-In . SVG Version: 6.00 Build 0)  -->
<!DOCTYPE svg PUBLIC "-//W3C//DTD SVG 1.1//EN" "http://www.w3.org/Graphics/SVG/1.1/DTD/svg11.dtd">
<svg version="1.1" id="图层_1" xmlns="http://www.w3.org/2000/svg" xmlns:xlink="http://www.w3.org/1999/xlink" x="0px" y="0px"
	 width="1024px" height="1024px" viewBox="0 0 1024 1024" enable-background="new 0 0 1024 1024" xml:space="preserve">
<path d="M512,64C264.576,64,64,264.576,64,512s200.576,448,448,448s448-200.576,448-448S759.424,64,512,64z M784.627,372.162
	L459.695,697.094c-6.249,6.248-14.438,9.372-22.627,9.372s-16.379-3.124-22.627-9.372L239.373,522.025
	c-12.497-12.497-12.497-32.758,0-45.255c12.497-12.497,32.758-12.497,45.255,0l152.44,152.44l302.305-302.304
	c12.496-12.497,32.758-12.497,45.254,0C797.124,339.404,797.124,359.665,784.627,372.162z"/>
</svg>
