<?xml version="1.0" encoding="utf-8"?>
<!-- Generator: Adobe Illustrator 17.0.0, SVG Export Plug-In . SVG Version: 6.00 Build 0)  -->
<!DOCTYPE svg PUBLIC "-//W3C//DTD SVG 1.1//EN" "http://www.w3.org/Graphics/SVG/1.1/DTD/svg11.dtd">
<svg version="1.1" id="图层_1" xmlns="http://www.w3.org/2000/svg" xmlns:xlink="http://www.w3.org/1999/xlink" x="0px" y="0px"
	 width="1024px" height="1024px" viewBox="0 0 1024 1024" enable-background="new 0 0 1024 1024" xml:space="preserve">
<circle fill="#F2F2F2" cx="512" cy="512" r="448"/>
<path fill="#565656" d="M830.706,475.115c-6.927-61.53-41.654-117.587-97.784-157.845C677.834,277.759,605.828,256,530.167,256
	c-15.457,0-31.171,0.912-46.707,2.711c-84.781,9.819-161.621,45.184-216.366,99.58c-55.247,54.895-81.456,122.582-73.799,190.593
	c6.927,61.529,41.654,117.585,97.784,157.843c55.086,39.508,127.092,61.269,202.755,61.272c0.008,0,0.014,0,0.022,0
	c15.441,0,31.15-0.912,46.684-2.711c84.781-9.819,161.621-45.185,216.366-99.58C812.153,610.813,838.362,543.126,830.706,475.115z
	 M258.124,485c-0.061-0.41-0.122-0.821-0.179-1.232c-0.154-1.117-0.3-2.236-0.423-3.359
	c-10.624-96.642,92.502-188.523,229.884-204.817c13.948-1.654,28.026-2.493,41.847-2.493c18.03,0,35.737,1.428,52.828,4.193
	c38.397,6.213,73.677,19.197,102.47,38.046c29.709,19.448,51.113,44.337,62.484,72.096c4.449,10.863,7.363,22.165,8.637,33.753
	c0.014,0.124,0.021,0.247,0.034,0.371c0.16,1.496,0.296,2.994,0.4,4.496c0.013,0.189,0.019,0.378,0.031,0.567
	c0.739,11.493-0.153,23.156-2.678,34.867c-42.808-53.613-121.137-86.309-209.223-86.309c-14.413,0-29.094,0.885-43.636,2.63
	c-106.171,12.741-196.176,70.191-230.208,145.249c-5.915-11.71-9.915-23.806-11.967-36.154
	C258.321,486.269,258.218,485.635,258.124,485z M502.507,393.693c13.911-1.669,27.951-2.516,41.729-2.516
	c88.457,0,166.078,34.318,203.726,89.798c-26.665,72.213-113.74,132.166-222.175,145.028c-13.948,1.654-28.026,2.493-41.846,2.493
	c-58.542,0-113.696-15-155.302-42.237c-19.958-13.065-36.155-28.592-48.093-45.791C308.034,465.163,396.637,406.399,502.507,393.693
	z M538.7,749.395c-14.928,1.729-30.014,2.605-44.843,2.605c-0.007,0-0.016,0-0.023,0c-149.122-0.009-271.491-88.099-284.64-204.905
	c-6.715-59.645,15.351-117.485,57.148-164.617c-19.825,31.405-28.477,65.549-24.725,99.68c0.153,1.393,0.328,2.783,0.525,4.17
	c3.338,23.751,12.768,46.272,27.548,66.5l4.371,6.685l0.228-0.674c12.181,15.185,27.478,28.953,45.586,40.807
	c44.181,28.923,102.447,44.851,164.065,44.851c14.447,0,29.161-0.876,43.731-2.604c70.283-8.336,134.303-35.755,180.265-77.204
	c22.784-20.547,39.814-43.35,50.642-67.3l0.384,0.597l2.355-6.961c8.285-20.565,12.011-41.894,10.91-63.304
	c-0.029-0.604-0.069-1.208-0.106-1.812c-0.046-0.717-0.087-1.434-0.144-2.151c-0.112-1.443-0.242-2.884-0.4-4.322
	c-1.311-11.921-4.158-23.549-8.428-34.757c-5.689-14.934-13.924-29.116-24.498-42.234c42.386,35.478,70.257,82.076,76.154,134.46
	C829.544,607.817,705.683,730.056,538.7,749.395z"/>
</svg>
