<?xml version="1.0" encoding="utf-8"?>
<!-- Generator: Adobe Illustrator 17.0.0, SVG Export Plug-In . SVG Version: 6.00 Build 0)  -->
<!DOCTYPE svg PUBLIC "-//W3C//DTD SVG 1.1//EN" "http://www.w3.org/Graphics/SVG/1.1/DTD/svg11.dtd">
<svg version="1.1" id="图层_1" xmlns="http://www.w3.org/2000/svg" xmlns:xlink="http://www.w3.org/1999/xlink" x="0px" y="0px"
	 width="1024px" height="1024px" viewBox="0 0 1024 1024" enable-background="new 0 0 1024 1024" xml:space="preserve">
<circle fill="#F2F2F2" cx="512" cy="512" r="448"/>
<g>
	<path fill="#565656" d="M413.713,337.878c0,41.937,23.128,74.344,36.915,89.928c19.976,22.581,44.639,37.753,61.371,37.753
		c18.506,0,43.242-14.852,63.018-37.836c13.171-15.309,35.268-47.337,35.268-89.845c0-4.788,0.046-9.705,0.09-14.461
		c0.371-40.114,0.755-81.594-24.756-107.342C569.567,199.875,545.486,192,511.999,192c-33.475,0-57.55,7.875-73.601,24.073
		c-25.523,25.759-25.142,67.261-24.773,107.397C413.669,328.283,413.713,333.095,413.713,337.878z M449.764,227.335
		C462.656,214.325,483.013,208,511.999,208c28.999,0,49.362,6.325,62.253,19.336c20.816,21.01,20.479,57.403,20.122,95.933
		c-0.044,4.792-0.09,9.747-0.09,14.609c0,37.343-19.671,65.782-31.396,79.41c-19.077,22.173-39.752,32.271-50.889,32.271
		c-10.066,0-30.796-11.339-49.387-32.354c-12.287-13.889-32.899-42.664-32.899-79.327c0-4.844-0.045-9.78-0.089-14.555
		C429.27,284.77,428.936,248.355,449.764,227.335z"/>
	<path fill="#565656" d="M610.287,686.122c0-41.938-23.129-74.344-36.915-89.929c-19.977-22.581-44.64-37.753-61.371-37.753
		c-18.506,0-43.242,14.852-63.018,37.836c-13.172,15.309-35.268,47.338-35.268,89.846c0,4.788-0.045,9.705-0.089,14.461
		c-0.372,40.114-0.756,81.594,24.755,107.342c16.051,16.2,40.132,24.075,73.62,24.075c33.475,0,57.55-7.874,73.601-24.073
		c25.523-25.759,25.143-67.262,24.774-107.397C610.331,695.717,610.287,690.904,610.287,686.122z M574.236,796.665
		C561.345,809.676,540.987,816,512.001,816c-28.999,0-49.362-6.325-62.253-19.336c-20.816-21.01-20.479-57.403-20.123-95.933
		c0.044-4.792,0.09-9.748,0.09-14.609c0-37.344,19.671-65.782,31.396-79.41c19.077-22.173,39.752-32.271,50.889-32.271
		c10.066,0,30.797,11.34,49.387,32.354c12.287,13.889,32.899,42.664,32.899,79.327c0,4.844,0.045,9.78,0.089,14.554
		C594.73,739.229,595.064,775.645,574.236,796.665z"/>
	<path fill="#565656" d="M794.84,428.279c-22.722-13.604-53.08-14.744-79.752-14.744c-4.845,0-9.783,0.045-14.558,0.089
		c-4.813,0.044-9.626,0.088-14.408,0.088c-41.938,0-74.344,23.128-89.929,36.915c-22.581,19.976-37.753,44.639-37.753,61.371
		c0,18.506,14.852,43.242,37.836,63.018c15.309,13.171,47.338,35.268,89.846,35.268c4.788,0,9.705,0.046,14.461,0.09
		c4.792,0.044,9.748,0.09,14.611,0.09c26.646,0,56.979-1.14,79.687-14.755C819.858,580.734,832,553.353,832,511.999
		C832,470.636,819.845,443.251,794.84,428.279z M715.194,594.464c-4.789,0-9.707-0.045-14.463-0.09
		c-4.792-0.044-9.747-0.09-14.609-0.09c-37.344,0-65.782-19.671-79.41-31.396c-22.173-19.077-32.271-39.752-32.271-50.889
		c0-10.066,11.34-30.796,32.354-49.387c13.889-12.287,42.664-32.899,79.327-32.899c4.844,0,9.78-0.045,14.555-0.089
		c4.813-0.044,9.627-0.088,14.411-0.088c57.176,0,100.912,6.072,100.912,82.463C816,588.392,772.31,594.464,715.194,594.464z"/>
	<path fill="#565656" d="M465.559,512.001c0-18.506-14.852-43.242-37.836-63.018c-15.309-13.172-47.337-35.268-89.845-35.268
		c-4.788,0-9.705-0.045-14.461-0.089c-4.792-0.044-9.748-0.09-14.611-0.09c-26.647,0-56.979,1.14-79.687,14.755
		C204.142,443.265,192,470.647,192,512.001c0,41.363,12.156,68.748,37.161,83.72c22.722,13.604,53.081,14.744,79.752,14.744
		c4.845,0,9.783-0.045,14.557-0.089c4.813-0.045,9.625-0.089,14.407-0.089c41.937,0,74.344-23.129,89.928-36.915
		C450.387,553.396,465.559,528.732,465.559,512.001z M417.205,561.388c-13.889,12.287-42.664,32.899-79.327,32.899
		c-4.843,0-9.78,0.045-14.554,0.089c-4.813,0.045-9.626,0.089-14.41,0.089c-57.177,0-100.914-6.072-100.914-82.464
		c0-76.393,43.69-82.465,100.806-82.465c4.789,0,9.707,0.045,14.463,0.089c4.792,0.044,9.747,0.09,14.609,0.09
		c37.343,0,65.782,19.671,79.41,31.396c22.173,19.077,32.271,39.752,32.271,50.889C449.559,522.067,438.22,542.798,417.205,561.388z
		"/>
	<path fill="#565656" d="M512,400.15c4.418,0,8-3.582,8-8V286.224c0-4.418-3.582-8-8-8c-4.418,0-8,3.582-8,8V392.15
		C504,396.568,507.582,400.15,512,400.15z"/>
	<path fill="#565656" d="M512,623.85c-4.418,0-8,3.582-8,8v105.926c0,4.418,3.582,8,8,8c4.418,0,8-3.582,8-8V631.85
		C520,627.432,516.418,623.85,512,623.85z"/>
	<path fill="#565656" d="M737.775,504H631.85c-4.418,0-8,3.582-8,8c0,4.418,3.582,8,8,8h105.926c4.418,0,8-3.582,8-8
		C745.775,507.582,742.193,504,737.775,504z"/>
	<path fill="#565656" d="M392.15,504H286.224c-4.418,0-8,3.582-8,8c0,4.418,3.582,8,8,8H392.15c4.418,0,8-3.582,8-8
		C400.15,507.582,396.568,504,392.15,504z"/>
	<path fill="#565656" d="M477.31,512c0,19.128,15.562,34.69,34.69,34.69s34.69-15.563,34.69-34.69s-15.563-34.69-34.69-34.69
		S477.31,492.872,477.31,512z M530.69,512c0,10.306-8.385,18.69-18.69,18.69s-18.69-8.385-18.69-18.69s8.384-18.69,18.69-18.69
		S530.69,501.694,530.69,512z"/>
</g>
</svg>
