<?xml version="1.0" encoding="utf-8"?>
<!-- Generator: Adobe Illustrator 17.0.0, SVG Export Plug-In . SVG Version: 6.00 Build 0)  -->
<!DOCTYPE svg PUBLIC "-//W3C//DTD SVG 1.1//EN" "http://www.w3.org/Graphics/SVG/1.1/DTD/svg11.dtd">
<svg version="1.1" id="图层_1" xmlns="http://www.w3.org/2000/svg" xmlns:xlink="http://www.w3.org/1999/xlink" x="0px" y="0px"
	 width="1024px" height="1024px" viewBox="0 0 1024 1024" enable-background="new 0 0 1024 1024" xml:space="preserve">
<circle fill="#F2F2F2" cx="512" cy="512" r="448"/>
<g>
	<path fill="#565656" d="M418.826,685.086c-9.65-32.313-28.804-78.482-65.249-114.928c-36.444-36.443-82.613-55.598-114.927-65.248
		c-34.903-10.424-61.016-12.285-62.11-12.358c-2.303-0.16-4.564,0.691-6.197,2.325s-2.481,3.893-2.325,6.197
		c0.074,1.095,1.935,27.208,12.358,62.11c9.65,32.313,28.804,78.482,65.249,114.927s82.613,55.598,114.927,65.248
		c34.903,10.424,61.016,12.284,62.11,12.358c0.181,0.013,0.361,0.019,0.541,0.019c0.007,0,0.013,0,0.02,0c4.418,0,8-3.582,8-8
		c0-0.4-0.029-0.793-0.086-1.177C430.792,742.229,428.486,717.432,418.826,685.086z M342.264,581.473
		c46.149,46.149,63.477,109.943,69.693,143.703L198.535,511.755C232.263,517.941,296.022,535.23,342.264,581.473z M256.939,666.797
		c-46.149-46.149-63.477-109.945-69.693-143.704l213.422,213.422C366.94,730.33,303.182,713.04,256.939,666.797z"/>
	<path fill="#565656" d="M853.657,494.877c-1.635-1.634-3.905-2.484-6.197-2.325c-1.095,0.074-27.208,1.935-62.11,12.358
		c-32.313,9.65-78.482,28.804-114.928,65.248c-36.443,36.445-55.598,82.614-65.248,114.928
		c-10.424,34.902-12.284,61.016-12.358,62.11c-0.156,2.304,0.691,4.563,2.324,6.197c1.506,1.505,3.543,2.343,5.656,2.343
		c0.181,0,0.36-0.006,0.541-0.019c1.095-0.074,27.208-1.935,62.11-12.358c32.313-9.65,78.482-28.804,114.928-65.248
		c36.444-36.444,55.598-82.613,65.248-114.927c10.424-34.902,12.284-61.016,12.358-62.11
		C856.138,498.77,855.29,496.51,853.657,494.877z M681.736,581.473c46.149-46.149,109.945-63.477,143.704-69.693L612.019,725.2
		C618.204,691.471,635.494,627.715,681.736,581.473z M767.061,666.797c-46.149,46.15-109.944,63.477-143.703,69.694l213.422-213.422
		C830.593,556.797,813.304,620.555,767.061,666.797z"/>
	<path fill="#565656" d="M566.925,334.968c-24.091-44.607-47.897-72.068-48.898-73.215c-1.52-1.74-3.717-2.738-6.026-2.738
		c-2.31,0-4.507,0.999-6.026,2.738c-1.002,1.147-24.808,28.607-48.899,73.215C434.792,376.229,408.229,440.436,408.229,512
		c0,71.564,26.563,135.771,48.847,177.032c24.091,44.607,47.897,72.066,48.899,73.214c1.519,1.74,3.716,2.738,6.026,2.738
		c2.31,0,4.507-0.998,6.026-2.738c1.001-1.147,24.808-28.606,48.898-73.214c22.283-41.262,48.847-105.468,48.847-177.032
		C615.771,440.436,589.208,376.229,566.925,334.968z M424.229,512c0-68.067,25.41-129.506,46.726-169.061
		c12.016-22.297,24.119-40.344,33.045-52.621v443.374c-8.866-12.192-20.873-30.093-32.847-52.264
		C449.747,641.791,424.229,580.222,424.229,512z M553.045,681.061c-12.016,22.297-24.119,40.344-33.045,52.621V290.319
		c8.927,12.277,21.03,30.325,33.045,52.62c21.316,39.555,46.727,100.994,46.727,169.061
		C599.771,580.067,574.361,641.506,553.045,681.061z"/>
</g>
</svg>
