<?xml version="1.0" encoding="utf-8"?>
<!-- Generator: Adobe Illustrator 17.0.0, SVG Export Plug-In . SVG Version: 6.00 Build 0)  -->
<!DOCTYPE svg PUBLIC "-//W3C//DTD SVG 1.1//EN" "http://www.w3.org/Graphics/SVG/1.1/DTD/svg11.dtd">
<svg version="1.1" id="图层_1" xmlns="http://www.w3.org/2000/svg" xmlns:xlink="http://www.w3.org/1999/xlink" x="0px" y="0px"
	 width="1024px" height="1024px" viewBox="0 0 1024 1024" enable-background="new 0 0 1024 1024" xml:space="preserve">
<circle fill="#F2F2F2" cx="512" cy="512" r="448"/>
<g>
	<path fill="#565656" d="M256,491.528h235.543V255.985H256V491.528z M272,271.985h203.543v203.543H272V271.985z"/>
	<path fill="#565656" d="M256,656.235c0,1.137,0.157,28.147,13.817,55.468c12.845,25.688,40.267,56.312,97.962,56.312h123.764
		V532.472H256V656.235z M272,548.472h203.543v203.543H367.779c-39.552,0-67.616-15.812-83.414-46.995
		c-12.145-23.972-12.365-48.552-12.366-48.784V548.472z"/>
	<path fill="#565656" d="M754.183,312.296c-12.845-25.689-40.267-56.312-97.962-56.312H532.457v235.543H768V367.764
		C768,366.627,767.843,339.616,754.183,312.296z M752,475.528H548.457V271.985h107.764c39.552,0,67.616,15.812,83.414,46.995
		c12.144,23.972,12.364,48.552,12.365,48.784V475.528z"/>
	<path fill="#565656" d="M532.456,768.016h235.543V532.473H532.456V768.016z M548.456,548.473h203.543v203.543H548.456V548.473z"/>
</g>
</svg>
