<?xml version="1.0" encoding="utf-8"?>
<!-- Generator: Adobe Illustrator 17.0.0, SVG Export Plug-In . SVG Version: 6.00 Build 0)  -->
<!DOCTYPE svg PUBLIC "-//W3C//DTD SVG 1.1//EN" "http://www.w3.org/Graphics/SVG/1.1/DTD/svg11.dtd">
<svg version="1.1" id="图层_1" xmlns="http://www.w3.org/2000/svg" xmlns:xlink="http://www.w3.org/1999/xlink" x="0px" y="0px"
	 width="1024px" height="1024px" viewBox="0 0 1024 1024" enable-background="new 0 0 1024 1024" xml:space="preserve">
<circle fill="#F2F2F2" cx="512" cy="512" r="448"/>
<path fill="#565656" d="M680.535,399.18c-18.364-39.63-43.626-71.655-75.082-95.185c-39.302-29.398-88.249-45.418-145.48-47.615
	c-0.077-0.003-0.155-0.005-0.232-0.005l-48.002-0.448c-0.72-0.05-2.497-0.15-5.097-0.15c-10.829,0-31.968,1.659-51.869,12.767
	c-25.397,14.176-40.159,39.394-42.688,72.927c-0.015,0.2-0.022,0.401-0.022,0.603l0.055,361.811c0,3.443,2.204,6.5,5.471,7.589
	l191.798,63.919c0.821,0.273,1.675,0.41,2.529,0.41c0.853,0,1.705-0.137,2.524-0.409l192.187-63.918
	c3.27-1.087,5.475-4.145,5.476-7.589l0.035-170.212C712.128,530.948,711.573,466.16,680.535,399.18z M328.062,342.377
	c3.275-42.052,26.875-59.345,48.867-66.246c1.23-0.051,26.83-0.79,54.871,25.568c32.953,30.975,72.213,102.924,72.114,269.799
	l0.178,185.264l-175.977-58.646L328.062,342.377z M696.103,698.113l-176.01,58.538l-0.177-185.156
	c0.045-76.347-8.079-140.279-24.146-190.021c-12.805-39.644-30.64-70.406-53.01-91.433c-8.434-7.927-16.764-13.76-24.533-18.053
	l41.251,0.385c97.551,3.78,166.974,48.55,206.325,133.067c29.723,63.838,30.333,127.651,30.336,128.257L696.103,698.113z"/>
</svg>
