<?xml version="1.0" encoding="utf-8"?>
<!-- Generator: Adobe Illustrator 17.0.0, SVG Export Plug-In . SVG Version: 6.00 Build 0)  -->
<!DOCTYPE svg PUBLIC "-//W3C//DTD SVG 1.1//EN" "http://www.w3.org/Graphics/SVG/1.1/DTD/svg11.dtd">
<svg version="1.1" id="图层_1" xmlns="http://www.w3.org/2000/svg" xmlns:xlink="http://www.w3.org/1999/xlink" x="0px" y="0px"
	 width="1024px" height="1024px" viewBox="0 0 1024 1024" enable-background="new 0 0 1024 1024" xml:space="preserve">
<circle fill="#F2F2F2" cx="512" cy="512" r="448"/>
<path fill="#565656" d="M677.908,510.49c-13.979-16.711-19.897-24.085-45.993-58.219c-0.021-0.028-0.046-0.06-0.068-0.087
	c-0.322-0.411-32.478-41.733-52.291-101.372c-0.936-4.331-9.886-47.556-3.002-82.984c0.065-0.336,0.108-0.677,0.13-1.019
	c0.022-0.339,2.58-34.204,39.429-60.279c2.844-2.013,4.059-5.635,3.003-8.955c-1.057-3.32-4.14-5.575-7.624-5.575
	c-45.66,0-72.738-0.081-98.924-0.159c-25.699-0.077-52.273-0.156-96.236-0.156c-3.535,0-6.651,2.32-7.665,5.708
	c-1.013,3.387,0.317,7.037,3.271,8.979c11.932,7.839,34.122,41.632,36.679,63.766c0.015,0.128,0.033,0.255,0.054,0.382
	c0.065,0.399,6.44,40.393-4.643,83.434c-5.376,20.878-20.313,45.903-32.316,66.01c-1.566,2.624-3.092,5.181-4.556,7.657
	c-4.9,8.291-14.778,20.524-26.215,34.689c-32.705,40.503-82.128,101.712-83.58,157.229c-0.918,35.127,8.293,64.507,27.377,87.323
	c14.745,17.627,35.502,31.423,61.809,41.117c-4.399,5.838-8.433,13.842-7.618,23.013c1.011,11.393,9.098,21.058,24.035,28.728
	C430.552,813.885,476.996,816,502.225,816c9.315,0,15.581-0.282,16.809-0.342c4.933-0.017,69.489-0.681,108.674-23.541
	c8.301-4.843,16.722-15.269,16.823-27.644c0.043-5.305-1.445-12.225-7.333-19.147c9.792-3.889,23.48-10.439,37.232-20.681
	c33.845-25.208,51.711-60.726,51.668-102.714C726.073,597.345,717.693,558.053,677.908,510.49z M619.645,778.297
	c-36.133,21.08-100.179,21.361-100.819,21.361l-0.419,0.011c-0.063,0.004-6.437,0.331-16.182,0.331
	c-23.785,0-67.358-1.886-91.952-14.515c-6.675-3.428-14.765-8.964-15.403-15.875c-0.545-5.906,4.132-12.135,7.893-15.948
	c10.019,3.652,34.989,11.351,72.717,13.819c10.904,1.006,22.673,1.629,35.121,1.629c0.005,0,0.003,0,0.008,0
	c38.585,0,75.371-6.039,109.42-17.918c4.397,3.209,8.547,7.685,8.502,13.151C628.483,770.066,623.917,775.805,619.645,778.297z
	 M665.308,711.488c-18.534,13.922-37.386,20.453-43.804,22.413l-2.569,0.734c-40.967,11.698-81.103,17.63-119.291,17.63
	c-7.912,0-15.371-0.264-22.383-0.715c-41.561-3.853-70.355-13.582-73.195-14.57l-4.505-1.443
	c-59.513-19.194-87.736-57.03-86.206-115.581c1.31-50.099,48.685-108.771,80.034-147.595c11.831-14.651,22.048-27.305,27.541-36.6
	c1.452-2.457,2.967-4.994,4.521-7.597c12.528-20.989,28.121-47.111,34.071-70.221c11.627-45.155,5.538-86.231,4.968-89.826
	c-2.226-18.679-15.37-43.783-28.729-60.426c32.808,0.02,55.095,0.086,76.759,0.151c21.754,0.065,44.122,0.132,77.243,0.152
	c-25.104,25.639-28.587,52.753-28.999,57.219c-7.711,40.419,2.814,87.508,3.268,89.5c0.057,0.249,0.126,0.495,0.206,0.737
	c20.558,62.131,53.105,104.168,54.998,106.58c26.09,34.126,32.471,42.074,46.4,58.728c36.71,43.886,44.441,79.251,44.463,101.191
	C710.136,659.01,695.066,689.136,665.308,711.488z"/>
</svg>
