<?xml version="1.0" encoding="utf-8"?>
<!-- Generator: Adobe Illustrator 17.0.0, SVG Export Plug-In . SVG Version: 6.00 Build 0)  -->
<!DOCTYPE svg PUBLIC "-//W3C//DTD SVG 1.1//EN" "http://www.w3.org/Graphics/SVG/1.1/DTD/svg11.dtd">
<svg version="1.1" id="图层_1" xmlns="http://www.w3.org/2000/svg" xmlns:xlink="http://www.w3.org/1999/xlink" x="0px" y="0px"
	 width="1024px" height="1024px" viewBox="0 0 1024 1024" enable-background="new 0 0 1024 1024" xml:space="preserve">
<circle fill="#F2F2F2" cx="512" cy="512" r="448"/>
<g>
	<path fill="#565656" d="M512,485.281c80.484,0,145.963-65.479,145.963-145.963c0-80.484-65.479-145.962-145.963-145.962
		s-145.963,65.479-145.963,145.962C366.037,419.802,431.516,485.281,512,485.281z M512,209.355
		c71.662,0,129.963,58.301,129.963,129.962S583.662,469.281,512,469.281c-71.662,0-129.963-58.301-129.963-129.963
		S440.338,209.355,512,209.355z"/>
	<path fill="#565656" d="M726.071,570.931c-57.276-42.498-133.301-65.902-214.07-65.902S355.207,528.433,297.93,570.93
		C239.938,613.959,208,671.394,208,732.653c0,1.935,0.169,3.764,0.319,5.378c0.093,1.004,0.181,1.953,0.224,2.849
		c0.204,4.265,3.721,7.618,7.991,7.618h590.932c4.271,0,7.788-3.354,7.991-7.619c0.042-0.896,0.131-1.847,0.224-2.852
		c0.149-1.612,0.319-3.44,0.319-5.374C816,671.394,784.063,613.959,726.071,570.931z M224,732.498
		c0.11-116.622,129.265-211.47,288.001-211.47c158.735,0,287.889,94.848,287.999,211.47H224z"/>
</g>
</svg>
