<?xml version="1.0" encoding="utf-8"?>
<!-- Generator: Adobe Illustrator 17.0.0, SVG Export Plug-In . SVG Version: 6.00 Build 0)  -->
<!DOCTYPE svg PUBLIC "-//W3C//DTD SVG 1.1//EN" "http://www.w3.org/Graphics/SVG/1.1/DTD/svg11.dtd">
<svg version="1.1" id="图层_1" xmlns="http://www.w3.org/2000/svg" xmlns:xlink="http://www.w3.org/1999/xlink" x="0px" y="0px"
	 width="1024px" height="1024px" viewBox="0 0 1024 1024" enable-background="new 0 0 1024 1024" xml:space="preserve">
<circle fill="#F2F2F2" cx="512" cy="512" r="448"/>
<g>
	<path fill="#565656" d="M830.398,691.094l-152.338-203c-1.527-2.035-3.96-3.25-6.476-3.198c-2.544,0.024-4.925,1.258-6.413,3.322
		l-77.49,107.513L433.07,387.59c-1.507-2.029-3.886-3.227-6.414-3.229c-0.003,0-0.005,0-0.008,0c-2.525,0-4.902,1.192-6.412,3.216
		L193.588,691.394c-2.642,3.541-1.913,8.554,1.628,11.195c1.436,1.071,3.114,1.588,4.777,1.588c2.439,0,4.848-1.111,6.418-3.217
		l220.222-295.202l219.169,295.049c2.634,3.547,7.645,4.285,11.192,1.651c3.547-2.635,4.286-7.646,1.651-11.192l-60.955-82.059
		l74.1-102.81l145.81,194.3c1.571,2.095,3.973,3.199,6.404,3.198c1.671,0,3.356-0.521,4.796-1.602
		C832.336,699.643,833.051,694.628,830.398,691.094z"/>
	<path fill="#565656" d="M639.515,428.602c47.63,0,86.379-38.75,86.379-86.379s-38.749-86.379-86.379-86.379
		s-86.379,38.75-86.379,86.379S591.885,428.602,639.515,428.602z M639.515,271.844c38.807,0,70.379,31.572,70.379,70.379
		s-31.572,70.379-70.379,70.379s-70.379-31.572-70.379-70.379S600.708,271.844,639.515,271.844z"/>
</g>
</svg>
