<?xml version="1.0" encoding="utf-8"?>
<!-- Generator: Adobe Illustrator 17.0.0, SVG Export Plug-In . SVG Version: 6.00 Build 0)  -->
<!DOCTYPE svg PUBLIC "-//W3C//DTD SVG 1.1//EN" "http://www.w3.org/Graphics/SVG/1.1/DTD/svg11.dtd">
<svg version="1.1" id="图层_1" xmlns="http://www.w3.org/2000/svg" xmlns:xlink="http://www.w3.org/1999/xlink" x="0px" y="0px"
	 width="1024px" height="1024px" viewBox="0 0 1024 1024" enable-background="new 0 0 1024 1024" xml:space="preserve">
<circle fill="#F2F2F2" cx="512" cy="512" r="448"/>
<g>
	<path fill="#565656" d="M834.59,439.603c-20.365-32.311-56.596-41.73-60.659-42.698c-0.433-0.103-0.872-0.17-1.315-0.2
		c-28.004-1.884-52.828,7.854-71.438,27.984c-9.565,10.349-14.936,20.595-17.242,25.662c-23.04-5.455-31.878-20.993-35.215-33.327
		c-0.944-3.488-4.109-5.911-7.723-5.911h-281.75c-3.053,0-5.841,1.738-7.184,4.48c-8.177,16.689-20.756,25.152-37.387,25.152
		c-8.694,0-15.693-2.34-17.718-3.092c-30.721-38.409-74.818-42.584-92.452-42.584c-2.376,0-4.659,0.071-6.782,0.21
		c-2.679,0.176-5.091,1.683-6.422,4.014l-14.248,24.934c-1.318,2.306-1.405,5.116-0.233,7.5c1.172,2.383,3.451,4.03,6.082,4.394
		c38.089,5.276,58.159,25.079,68.269,40.733c11.084,17.329,13.151,33.463,13.343,35.189v0.134
		c-9.123,59.405,5.975,109.443,44.85,148.691c25.886,26.429,54.848,39.077,60.391,41.344c0.961,0.394,1.99,0.596,3.028,0.596
		h257.351c0.257,0,0.514-0.013,0.77-0.037c22.252-2.151,44.899-18.655,67.313-49.054c13.408-18.184,22.611-35.908,25.765-42.303
		c39.398-3.784,71.55-20.507,95.587-49.72c16.855-20.443,24.154-41.161,24.956-44.454l0.002,0.001
		C851.413,487.02,848.067,460.894,834.59,439.603z M828.962,513.531c-0.405,1.285-6.293,19.251-21.744,37.99
		c-21.59,26.239-50.699,41.085-86.52,44.125l-2.44,0.174c-2.82,0.201-5.324,1.875-6.588,4.403l-1.068,2.138
		c-0.061,0.12-0.117,0.242-0.172,0.366c-0.792,1.696-38.148,79.548-80.7,84.08H374.396c-7.404-3.19-31.631-14.704-53.632-37.167
		c-35.268-35.606-48.842-81.233-40.345-135.613c0.063-0.408,0.096-0.821,0.096-1.235v-1.069c0-3.074-2.758-23.001-15.884-43.521
		c-10.864-16.821-31.284-37.642-68.067-45.867l6.431-11.254c0.479-0.007,0.984-0.012,1.513-0.012
		c15.431,0,54.175,3.642,80.639,37.439l0.712,0.891c0.963,1.204,2.253,2.104,3.716,2.592l0.749,0.25
		c3.104,1.299,12.831,4.504,24.354,4.504c15.101,0,35.529-5.281,49.389-29.632h271.106c5.309,14.262,18.081,33.755,48.604,39.56
		l3.563,0.712c3.857,0.771,7.714-1.383,9.075-5.08l1.246-3.384c0.003-0.007,0.006-0.014,0.008-0.021
		c0.449-1.156,18.549-46.432,68.026-46.432c1.687,0,3.414,0.052,5.145,0.155c4.748,1.247,34.031,9.832,50.225,35.523
		C832.164,465.685,834.821,487.683,828.962,513.531z"/>
	<path fill="#565656" d="M811.81,481.148c-1.689-5.744-11.337-34.685-35.428-40.441c-2.572-0.599-5.252-0.902-7.965-0.902
		c-16.67,0-35.465,11.359-55.862,33.763c-2.314,2.542-2.746,6.278-1.073,9.281c5.334,9.568,22.273,44.298,16.332,89.453
		c-0.354,2.694,0.683,5.384,2.753,7.142c1.466,1.244,3.307,1.902,5.18,1.902c0.773,0,1.554-0.112,2.314-0.343
		c7.407-2.239,22.003-7.541,36.525-17.886c27.835-19.854,40.457-46.908,37.519-80.41
		C812.058,482.179,811.959,481.657,811.81,481.148z M765.299,550.089c-7.164,5.103-14.449,8.813-20.435,11.387
		c1.953-37.255-9.242-66.336-16.663-81.21c15.458-16.026,29.297-24.46,40.216-24.46c1.494,0,2.955,0.164,4.294,0.475
		c14.723,3.518,22.151,24.401,23.524,28.661C798.404,512.38,788.278,533.698,765.299,550.089z"/>
	<path fill="#565656" d="M364.234,399.152h274.27c4.193,0,7.675-3.238,7.979-7.419c1.616-22.219-2.771-39.859-12.649-50.974
		c-11.747-13.392-26.881-13.767-27.03-13.767h-97.662v-19.978c10.637-3.396,18.363-13.37,18.363-25.119
		c0-14.715-11.912-26.65-26.458-26.364c-14.493,0.052-26.269,11.859-26.269,26.364c0,11.748,7.726,21.723,18.364,25.119v19.972
		l-85.618-0.113c-0.139,0.001-0.247,0.003-0.37,0.008c-18.229,0.82-31.966,6.936-40.795,18.133
		c-12.929,16.162-11.328,38.457-10.04,47.292C356.891,396.237,360.262,399.152,364.234,399.152z M501.141,271.532
		c0.063,0,0.127-0.001,0.19-0.002l0.234-0.002c5.48,0,9.939,4.651,9.939,10.369c0,5.714-4.649,10.363-10.363,10.363
		s-10.364-4.649-10.364-10.363S495.426,271.532,501.141,271.532z M378.887,354.965c5.83-7.394,15.52-11.462,28.805-12.092
		l89.938,0.119h108.897c1.051,0.115,9.044,1.21,15.313,8.357c5.878,6.613,8.985,17.747,8.968,31.803H371.536
		C371.232,375.262,372.139,363.4,378.887,354.965z"/>
</g>
</svg>
