<?xml version="1.0" encoding="utf-8"?>
<!-- Generator: Adobe Illustrator 17.0.0, SVG Export Plug-In . SVG Version: 6.00 Build 0)  -->
<!DOCTYPE svg PUBLIC "-//W3C//DTD SVG 1.1//EN" "http://www.w3.org/Graphics/SVG/1.1/DTD/svg11.dtd">
<svg version="1.1" id="图层_1" xmlns="http://www.w3.org/2000/svg" xmlns:xlink="http://www.w3.org/1999/xlink" x="0px" y="0px"
	 width="1024px" height="1024px" viewBox="0 0 1024 1024" enable-background="new 0 0 1024 1024" xml:space="preserve">
<path d="M953.805,493.076c-1.63-2.224-40.784-55.063-114.56-107.761c-31.284-22.345-64.242-41.395-98.376-56.929l102.404-102.404
	c12.497-12.497,12.497-32.758,0-45.255c-12.496-12.497-32.758-12.497-45.254,0L675.367,303.38
	c-52.738-16.375-107.566-24.67-163.367-24.67c-64.98,0-128.643,11.237-189.221,33.399c-48.339,17.685-94.777,42.315-138.024,73.207
	c-73.776,52.697-112.929,105.537-114.56,107.761c-8.26,11.264-8.26,26.584,0,37.848c1.63,2.224,40.784,55.063,114.56,107.761
	c31.284,22.345,64.243,41.395,98.377,56.929L180.728,798.019c-12.497,12.496-12.497,32.758,0,45.254
	c6.249,6.249,14.438,9.373,22.627,9.373s16.379-3.124,22.627-9.373L348.635,720.62C401.373,736.995,456.2,745.29,512,745.29
	c64.98,0,128.644-11.237,189.22-33.399c48.34-17.686,94.777-42.315,138.024-73.206c73.776-52.697,112.931-105.537,114.561-107.761
	C962.065,519.66,962.065,504.34,953.805,493.076z M223.848,587.952c-40.53-28.689-69.598-57.698-86.097-75.951
	c16.51-18.266,45.575-47.27,86.097-75.953c87.496-61.935,184.444-93.338,288.152-93.338c38.078,0,75.24,4.251,111.362,12.674
	l-47.887,47.887c-18.65-10.93-40.342-17.206-63.476-17.206c-69.441,0-125.936,56.495-125.936,125.936
	c0,23.134,6.276,44.826,17.206,63.476l-71.496,71.496C294.438,632.089,258.403,612.412,223.848,587.952z M573.936,512
	c0,34.151-27.784,61.936-61.936,61.936c-5.124,0-10.1-0.637-14.865-1.816l74.985-74.985C573.299,501.9,573.936,506.876,573.936,512z
	 M450.064,512c0-34.151,27.784-61.936,61.936-61.936c5.124,0,10.101,0.637,14.866,1.816l-74.986,74.986
	C450.701,522.101,450.064,517.124,450.064,512z M802.046,586.605C714.086,649.434,616.501,681.29,512,681.29
	c-38.077,0-75.239-4.25-111.361-12.674l47.886-47.886c18.65,10.929,40.342,17.206,63.475,17.206
	c69.441,0,125.936-56.494,125.936-125.936c0-23.133-6.276-44.825-17.206-63.475l71.496-71.496
	c37.337,14.882,73.371,34.559,107.925,59.019c40.559,28.709,69.639,57.738,86.132,75.989
	C870.144,529.924,841.86,558.166,802.046,586.605z"/>
</svg>
