<?xml version="1.0" encoding="utf-8"?>
<!-- Generator: Adobe Illustrator 17.0.0, SVG Export Plug-In . SVG Version: 6.00 Build 0)  -->
<!DOCTYPE svg PUBLIC "-//W3C//DTD SVG 1.1//EN" "http://www.w3.org/Graphics/SVG/1.1/DTD/svg11.dtd">
<svg version="1.1" id="图层_1" xmlns="http://www.w3.org/2000/svg" xmlns:xlink="http://www.w3.org/1999/xlink" x="0px" y="0px"
	 width="1024px" height="1024px" viewBox="0 0 1024 1024" enable-background="new 0 0 1024 1024" xml:space="preserve">
<g>
	<path d="M953.805,493.076c-1.63-2.224-40.784-55.063-114.56-107.761c-43.248-30.891-89.686-55.521-138.024-73.207
		C640.644,289.947,576.98,278.709,512,278.709s-128.643,11.237-189.221,33.399c-48.339,17.685-94.777,42.315-138.024,73.207
		c-73.776,52.697-112.929,105.537-114.56,107.761c-8.26,11.264-8.26,26.584,0,37.848c1.63,2.224,40.784,55.063,114.56,107.761
		c43.248,30.891,89.686,55.521,138.024,73.206C383.357,734.053,447.02,745.29,512,745.29c64.98,0,128.644-11.237,189.22-33.399
		c48.34-17.686,94.777-42.315,138.024-73.206c73.776-52.697,112.931-105.537,114.561-107.761
		C962.065,519.66,962.065,504.34,953.805,493.076z M802.046,586.605C714.086,649.434,616.501,681.29,512,681.29
		c-103.708,0-200.656-31.403-288.152-93.338c-40.53-28.689-69.598-57.698-86.097-75.951c16.51-18.266,45.575-47.27,86.097-75.953
		c87.496-61.935,184.444-93.338,288.152-93.338s200.656,31.403,288.151,93.338c40.559,28.709,69.639,57.738,86.132,75.989
		C870.144,529.924,841.86,558.166,802.046,586.605z"/>
	<path d="M512,386.064c-69.441,0-125.936,56.495-125.936,125.936c0,69.441,56.495,125.936,125.936,125.936
		c69.441,0,125.936-56.494,125.936-125.936C637.936,442.559,581.441,386.064,512,386.064z M512,573.936
		c-34.151,0-61.936-27.784-61.936-61.936s27.784-61.936,61.936-61.936s61.936,27.784,61.936,61.936S546.151,573.936,512,573.936z"/>
</g>
</svg>
