<?xml version="1.0" encoding="utf-8"?>
<!-- Generator: Adobe Illustrator 17.0.0, SVG Export Plug-In . SVG Version: 6.00 Build 0)  -->
<!DOCTYPE svg PUBLIC "-//W3C//DTD SVG 1.1//EN" "http://www.w3.org/Graphics/SVG/1.1/DTD/svg11.dtd">
<svg version="1.1" id="图层_1" xmlns="http://www.w3.org/2000/svg" xmlns:xlink="http://www.w3.org/1999/xlink" x="0px" y="0px"
	 width="1024px" height="1024px" viewBox="0 0 1024 1024" enable-background="new 0 0 1024 1024" xml:space="preserve">
<path d="M951.396,905.373L796.768,750.746c27.823-32.477,50.328-68.793,67.056-108.342c21.7-51.307,32.704-105.79,32.704-161.936
	s-11.004-110.628-32.704-161.936c-20.954-49.541-50.945-94.026-89.14-132.221s-82.68-68.185-132.221-89.139
	c-51.307-21.701-105.79-32.705-161.936-32.705S369.9,75.471,318.593,97.172c-49.541,20.954-94.026,50.945-132.221,89.139
	s-68.185,82.68-89.139,132.221c-21.701,51.307-32.705,105.79-32.705,161.936s11.003,110.629,32.705,161.936
	c20.954,49.541,50.945,94.026,89.139,132.221s82.68,68.186,132.221,89.14c51.307,21.7,105.79,32.704,161.936,32.704
	s110.629-11.004,161.936-32.704c39.86-16.859,76.439-39.58,109.11-67.705l154.568,154.568c6.248,6.249,14.438,9.373,22.627,9.373
	s16.379-3.124,22.627-9.373C963.893,938.131,963.893,917.869,951.396,905.373z M480.528,832.468c-194.093,0-352-157.906-352-352
	c0-194.093,157.907-352,352-352c194.094,0,352,157.907,352,352C832.528,674.562,674.622,832.468,480.528,832.468z"/>
</svg>
