<?xml version="1.0" encoding="utf-8"?>
<!-- Generator: Adobe Illustrator 17.0.0, SVG Export Plug-In . SVG Version: 6.00 Build 0)  -->
<!DOCTYPE svg PUBLIC "-//W3C//DTD SVG 1.1//EN" "http://www.w3.org/Graphics/SVG/1.1/DTD/svg11.dtd">
<svg version="1.1" id="图层_1" xmlns="http://www.w3.org/2000/svg" xmlns:xlink="http://www.w3.org/1999/xlink" x="0px" y="0px"
	 width="1024px" height="1024px" viewBox="0 0 1024 1024" enable-background="new 0 0 1024 1024" xml:space="preserve">
<g>
	<path fill-rule="evenodd" clip-rule="evenodd" fill="#39B54A" stroke="#09BB07" stroke-miterlimit="10" d="M924.791,337.616
		c-22.564-53.349-54.866-101.259-96.007-142.399c-41.142-41.141-89.052-73.442-142.4-96.007C631.147,75.846,572.476,64,512,64
		c-60.476,0-119.147,11.846-174.384,35.209c-53.349,22.564-101.259,54.866-142.399,96.007
		c-41.141,41.141-73.442,89.051-96.007,142.399C75.846,392.853,64,451.524,64,512c0,60.476,11.846,119.147,35.209,174.384
		c22.564,53.349,54.866,101.259,96.007,142.4c41.141,41.141,89.051,73.442,142.399,96.007C392.853,948.154,451.524,960,512,960
		c60.476,0,119.147-11.846,174.384-35.209c53.349-22.564,101.259-54.866,142.4-96.007c41.141-41.142,73.442-89.052,96.007-142.4
		C948.154,631.147,960,572.476,960,512C960,451.524,948.154,392.853,924.791,337.616z M512,944C273.794,944,80,750.206,80,512
		C80,273.794,273.794,80,512,80c238.206,0,432,193.794,432,432C944,750.206,750.206,944,512,944z"/>
	<path fill-rule="evenodd" clip-rule="evenodd" fill="#39B54A" stroke="#09BB07" stroke-miterlimit="10" d="M608.276,424.502
		c6.234,0,12.41,0.455,18.537,1.128c-16.656-77.57-99.599-135.21-194.281-135.21C326.686,290.42,240,362.566,240,454.19
		c0,52.862,28.826,96.297,77.032,129.989l-19.247,57.919l67.301-33.742c24.094,4.751,43.417,9.643,67.447,9.643
		c6.044,0,12.043-0.292,17.986-0.76c-3.769-12.874-5.942-26.356-5.942-40.344C444.576,492.772,516.786,424.502,608.276,424.502z
		 M504.737,372.298c14.502,0,24.087,9.529,24.087,24.024c0,14.432-9.585,24.112-24.087,24.112c-14.432,0-28.902-9.681-28.902-24.112
		C475.835,381.826,490.305,372.298,504.737,372.298z M369.984,420.434c-14.438,0-28.998-9.681-28.998-24.112
		c0-14.496,14.559-24.024,28.998-24.024c14.438,0,24.029,9.529,24.029,24.024C394.013,410.754,384.422,420.434,369.984,420.434z"/>
	<path fill-rule="evenodd" clip-rule="evenodd" fill="#39B54A" stroke="#09BB07" stroke-miterlimit="10" d="M620.453,434.84
		c-91.63,0-163.777,62.759-163.777,139.747c0,77.101,72.147,139.707,163.777,139.707c19.164,0,38.505-4.815,57.772-9.642
		l52.825,28.927l-14.489-48.137C755.2,656.452,784,617.998,784,574.588C784,497.6,706.975,434.84,620.453,434.84z M567.362,550.487
		c-9.592,0-19.253-9.527-19.253-19.272c0-9.579,9.661-19.247,19.253-19.247c14.558,0,24.087,9.668,24.087,19.247
		C591.449,540.959,581.92,550.487,567.362,550.487z M673.276,550.487c-9.527,0-19.138-9.527-19.138-19.272
		c0-9.579,9.61-19.247,19.138-19.247c14.42,0,24.088,9.668,24.088,19.247C697.364,540.959,687.697,550.487,673.276,550.487z"/>
</g>
</svg>
