<?xml version="1.0" encoding="utf-8"?>
<!-- Generator: Adobe Illustrator 17.0.0, SVG Export Plug-In . SVG Version: 6.00 Build 0)  -->
<!DOCTYPE svg PUBLIC "-//W3C//DTD SVG 1.1//EN" "http://www.w3.org/Graphics/SVG/1.1/DTD/svg11.dtd">
<svg version="1.1" id="图层_1" xmlns="http://www.w3.org/2000/svg" xmlns:xlink="http://www.w3.org/1999/xlink" x="0px" y="0px"
	 width="1024px" height="1024px" viewBox="0 0 1024 1024" enable-background="new 0 0 1024 1024" xml:space="preserve">
<g>
	<path fill="#00A9F1" d="M512.001,960C758.401,960,960,758.399,960,512c0-262.07-201.6-448-447.999-448S64,265.601,64,512
		S265.6,960,512.001,960L512.001,960z M467.201,274.001h81.2v66.924h165.2v33.6h-165.2v50.676h137.2c0,0-2.8,25.2-19.6,72.8
		s-33.6,70-33.6,70l266,86.8c0,0-8.4,25.2-19.6,47.6c-11.2,22.4-28,44.8-28,44.8l-254.8-120.4c0,0-47.6,53.2-98,75.6
		c-47.6,22.4-106.4,39.2-165.2,22.4c-61.6-14-103.6-53.2-98-126c8.4-72.8,84-98,148.4-98s182,42,182,42s11.2-22.4,19.6-47.6
		c11.2-25.2,11.2-47.6,11.2-47.6H344v-25.2h123.2v-47.6h-154v-33.6h154L467.201,274.001z M537.201,598.8c0,0-75.6,89.6-165.2,89.6
		s-109.2-42-109.2-72.8s19.6-64.4,95.2-70S537.201,598.8,537.201,598.8L537.201,598.8z"/>
</g>
</svg>
