<?xml version="1.0" encoding="utf-8"?>
<!-- Generator: Adobe Illustrator 17.0.0, SVG Export Plug-In . SVG Version: 6.00 Build 0)  -->
<!DOCTYPE svg PUBLIC "-//W3C//DTD SVG 1.1//EN" "http://www.w3.org/Graphics/SVG/1.1/DTD/svg11.dtd">
<svg version="1.1" id="图层_1" xmlns="http://www.w3.org/2000/svg" xmlns:xlink="http://www.w3.org/1999/xlink" x="0px" y="0px"
	 width="1024px" height="1024px" viewBox="0 0 1024 1024" enable-background="new 0 0 1024 1024" xml:space="preserve">
<g>
	<path fill-rule="evenodd" clip-rule="evenodd" fill="#00B700" d="M390.137,616.841c-14.319,7.11-31.943,2.203-39.653-12.116
		l-2.203-4.406l-81.409-178.739c-1.101-2.203-1.602-3.805-1.602-6.008c0-8.211,6.609-14.82,14.82-14.82
		c3.304,0,6.609,1.101,8.812,2.704l96.229,68.191c11.515,7.71,26.435,9.312,39.653,4.406l453.307-201.37
		C796.681,178.954,663.002,116.771,511.7,116.771C264.769,116.271,64,283.495,64,489.771c0,112.25,60.481,213.987,154.607,282.178
		c7.71,5.507,12.617,14.82,12.617,24.232c0,3.304-0.501,6.609-1.602,9.913l-20.427,75.301c-1.101,3.304-2.203,7.109-2.203,11.015
		c0,8.211,6.609,14.82,14.82,14.82c3.304,0,6.008-1.101,8.812-2.704l97.931-56.676c7.11-4.406,15.421-6.609,23.632-7.11
		c4.406,0,8.812,0.501,13.218,2.203c47.864,13.718,96.83,20.327,146.296,20.327c247.532,0,448.3-167.224,448.3-373.5
		c0-61.582-18.124-121.563-51.169-173.232L392.941,614.638L390.137,616.841L390.137,616.841z"/>
</g>
</svg>
