<?xml version="1.0" encoding="utf-8"?>
<!-- Generator: Adobe Illustrator 17.0.0, SVG Export Plug-In . SVG Version: 6.00 Build 0)  -->
<!DOCTYPE svg PUBLIC "-//W3C//DTD SVG 1.1//EN" "http://www.w3.org/Graphics/SVG/1.1/DTD/svg11.dtd">
<svg version="1.1" id="图层_1" xmlns="http://www.w3.org/2000/svg" xmlns:xlink="http://www.w3.org/1999/xlink" x="0px" y="0px"
	 width="1024px" height="1024px" viewBox="0 0 1024 1024" enable-background="new 0 0 1024 1024" xml:space="preserve">
<path d="M958.345,403.637c-3.808-11.374-13.655-19.663-25.512-21.474l-270.569-41.339L540.968,82.403
	C535.696,71.172,524.407,64,512,64s-23.696,7.172-28.968,18.403l-121.296,258.42l-270.569,41.34
	c-11.856,1.811-21.704,10.101-25.512,21.474s-0.936,23.921,7.44,32.506l196.722,201.625l-46.502,285.081
	c-1.973,12.095,3.135,24.253,13.152,31.311c10.017,7.058,23.187,7.775,33.912,1.847L512,822.44l241.621,133.565
	c4.834,2.672,10.164,3.994,15.479,3.994c6.477,0,12.931-1.964,18.434-5.841c10.018-7.058,15.125-19.217,13.152-31.311
	l-46.503-285.081l196.722-201.625C959.28,427.559,962.152,415.011,958.345,403.637z M697.096,604.632
	c-7.093,7.27-10.313,17.476-8.679,27.499l38.494,235.982l-199.43-110.242c-9.635-5.326-21.329-5.326-30.963,0L297.089,868.113
	l38.493-235.982c1.635-10.023-1.585-20.229-8.678-27.499l-164.51-168.609l225.887-34.513c10.549-1.612,19.601-8.376,24.135-18.036
	L512,171.313l99.583,212.162c4.534,9.66,13.586,16.424,24.135,18.036l225.888,34.513L697.096,604.632z"/>
</svg>
