<?xml version="1.0" encoding="utf-8"?>
<!-- Generator: Adobe Illustrator 17.0.0, SVG Export Plug-In . SVG Version: 6.00 Build 0)  -->
<!DOCTYPE svg PUBLIC "-//W3C//DTD SVG 1.1//EN" "http://www.w3.org/Graphics/SVG/1.1/DTD/svg11.dtd">
<svg version="1.1" id="图层_1" xmlns="http://www.w3.org/2000/svg" xmlns:xlink="http://www.w3.org/1999/xlink" x="0px" y="0px"
	 width="1024px" height="1024px" viewBox="0 0 1024 1024" enable-background="new 0 0 1024 1024" xml:space="preserve">
<g>
	<path d="M591.941,961.45H430.625c-17.673,0-32-14.327-32-32v-97.923l-40.015-13.338l-66.674,66.674
		c-12.496,12.496-32.758,12.496-45.255,0L139.137,777.318c-12.497-12.496-12.497-32.758,0-45.255l66.674-66.673l-13.338-40.016
		H94.55c-17.673,0-32-14.327-32-32V432.059c0-17.673,14.327-32,32-32h97.923l13.338-40.015l-66.674-66.674
		c-6.001-6.001-9.373-14.141-9.373-22.627s3.372-16.626,9.373-22.627l107.544-107.544c12.497-12.497,32.759-12.497,45.255,0
		l66.674,66.674l40.015-13.339V95.984c0-17.673,14.327-32,32-32h161.316c17.673,0,32,14.327,32,32v97.922l40.015,13.339
		l66.673-66.674c12.498-12.497,32.758-12.497,45.256,0l107.544,107.544c12.496,12.497,12.496,32.758,0,45.255l-66.674,66.673
		l13.339,40.016h97.923c17.673,0,32,14.327,32,32v161.316c0,17.673-14.327,32-32,32h-97.923l-13.339,40.016l66.674,66.674
		c12.496,12.496,12.496,32.758,0,45.254L775.885,884.863c-12.498,12.496-32.758,12.496-45.256,0l-66.673-66.674l-40.015,13.338
		v97.923C623.941,947.123,609.614,961.45,591.941,961.45z M462.625,897.45h97.316v-88.987c0-13.773,8.813-26.002,21.881-30.357
		l80.657-26.886c11.499-3.833,24.177-0.84,32.747,7.729l58.03,58.031l62.289-62.289l-58.03-58.031
		c-8.57-8.57-11.563-21.247-7.729-32.746l26.886-80.658c4.355-13.067,16.584-21.881,30.357-21.881h88.987v-97.316h-88.987
		c-13.773,0-26.002-8.814-30.357-21.881l-26.886-80.658c-3.833-11.499-0.841-24.176,7.729-32.747l58.03-58.031l-62.289-62.289
		l-58.03,58.031c-8.572,8.571-21.252,11.562-32.747,7.73l-80.657-26.886c-13.067-4.356-21.881-16.584-21.881-30.358v-88.987h-97.316
		v88.987c0,13.774-8.813,26.002-21.88,30.358l-80.658,26.886c-11.498,3.833-24.176,0.841-32.747-7.73l-58.031-58.031l-62.289,62.289
		l58.031,58.031c8.57,8.571,11.563,21.248,7.73,32.747l-26.886,80.658c-4.355,13.067-16.584,21.881-30.358,21.881H126.55v97.316
		h88.987c13.774,0,26.002,8.813,30.358,21.881l26.886,80.658c3.833,11.499,0.84,24.176-7.73,32.746l-58.031,58.031l62.289,62.289
		l58.031-58.031c8.571-8.57,21.249-11.563,32.747-7.729l80.658,26.886c13.067,4.355,21.881,16.584,21.881,30.357V897.45z"/>
	<path d="M511.283,648.9c-75.092,0-136.183-61.092-136.183-136.183c0-75.092,61.091-136.184,136.183-136.184
		c75.091,0,136.183,61.092,136.183,136.184C647.466,587.809,586.374,648.9,511.283,648.9z M511.283,440.534
		c-39.802,0-72.183,32.381-72.183,72.184s32.381,72.183,72.183,72.183c39.802,0,72.183-32.381,72.183-72.183
		S551.085,440.534,511.283,440.534z"/>
</g>
</svg>
