<?xml version="1.0" encoding="utf-8"?>
<!-- Generator: Adobe Illustrator 17.0.0, SVG Export Plug-In . SVG Version: 6.00 Build 0)  -->
<!DOCTYPE svg PUBLIC "-//W3C//DTD SVG 1.1//EN" "http://www.w3.org/Graphics/SVG/1.1/DTD/svg11.dtd">
<svg version="1.1" id="图层_1" xmlns="http://www.w3.org/2000/svg" xmlns:xlink="http://www.w3.org/1999/xlink" x="0px" y="0px"
	 width="1024px" height="1024px" viewBox="0 0 1024 1024" enable-background="new 0 0 1024 1024" xml:space="preserve">
<g>
	<path d="M928,63.884H96c-17.673,0-32,14.327-32,32V736.39c0,17.673,14.327,32,32,32h196.129v158.253
		c0,12.979,7.84,24.673,19.847,29.603c3.933,1.614,8.057,2.398,12.146,2.398c8.396,0,16.644-3.306,22.776-9.517L525.373,768.39H928
		c17.673,0,32-14.327,32-32V95.884C960,78.211,945.673,63.884,928,63.884z M896,704.39H512c-8.557,0-16.757,3.427-22.77,9.516
		L356.129,848.694V736.39c0-17.673-14.327-32-32-32H128V127.884h768V704.39z"/>
	<path d="M288.062,512.816c17.673,0,32-14.327,32-32V351.759c0-17.673-14.327-32-32-32s-32,14.327-32,32v129.058
		C256.062,498.489,270.389,512.816,288.062,512.816z"/>
	<path d="M512,512.816c17.673,0,32-14.327,32-32V351.759c0-17.673-14.327-32-32-32c-17.673,0-32,14.327-32,32v129.058
		C480,498.489,494.327,512.816,512,512.816z"/>
	<path d="M736.137,512.816c17.673,0,32-14.327,32-32V351.759c0-17.673-14.327-32-32-32s-32,14.327-32,32v129.058
		C704.137,498.489,718.464,512.816,736.137,512.816z"/>
</g>
</svg>
