<?xml version="1.0" encoding="utf-8"?>
<!-- Generator: Adobe Illustrator 17.0.0, SVG Export Plug-In . SVG Version: 6.00 Build 0)  -->
<!DOCTYPE svg PUBLIC "-//W3C//DTD SVG 1.1//EN" "http://www.w3.org/Graphics/SVG/1.1/DTD/svg11.dtd">
<svg version="1.1" id="图层_1" xmlns="http://www.w3.org/2000/svg" xmlns:xlink="http://www.w3.org/1999/xlink" x="0px" y="0px"
	 width="1024px" height="1024px" viewBox="0 0 1024 1024" enable-background="new 0 0 1024 1024" xml:space="preserve">
<g>
	<path d="M512.003,265.829c-97.048,0-176.003,78.953-176.003,176c0,97.046,78.955,176,176.003,176
		c97.045,0,175.997-78.953,175.997-176C688,344.782,609.048,265.829,512.003,265.829z M512.003,553.828
		c-61.759,0-112.003-50.243-112.003-112s50.244-112,112.003-112c61.756,0,111.997,50.243,111.997,112
		S573.759,553.828,512.003,553.828z"/>
	<path d="M512.007,64c-210.828,0-382.349,171.518-382.349,382.343c0,78.607,23.781,154.182,68.771,218.553
		c0.403,0.576,0.825,1.14,1.265,1.688l29.079,36.259c0.44,0.548,0.897,1.081,1.372,1.6
		c11.306,12.337,218.485,207.784,259.902,246.839C496.211,957.095,504.104,960,512,960c7.894,0,15.79-2.906,21.953-8.718
		c41.42-39.057,248.611-234.511,259.935-246.872c0.475-0.518,0.932-1.05,1.37-1.598l29.052-36.23
		c0.439-0.549,0.861-1.111,1.264-1.687c44.989-64.37,68.769-139.944,68.769-218.553C894.342,235.518,722.827,64,512.007,64z
		 M773.703,627.389l-27.51,34.308C733.139,675.018,607.003,794.373,512,884.011c-94.991-89.629-221.106-208.967-234.166-222.289
		l-27.538-34.336c-37.058-53.383-56.639-115.96-56.639-181.043C193.658,270.808,336.469,128,512.007,128
		c175.53,0,318.335,142.808,318.335,318.343C830.342,511.426,810.76,574.007,773.703,627.389z"/>
</g>
</svg>
