<?xml version="1.0" encoding="utf-8"?>
<!-- Generator: Adobe Illustrator 17.0.0, SVG Export Plug-In . SVG Version: 6.00 Build 0)  -->
<!DOCTYPE svg PUBLIC "-//W3C//DTD SVG 1.1//EN" "http://www.w3.org/Graphics/SVG/1.1/DTD/svg11.dtd">
<svg version="1.1" id="图层_1" xmlns="http://www.w3.org/2000/svg" xmlns:xlink="http://www.w3.org/1999/xlink" x="0px" y="0px"
	 width="1024px" height="1024px" viewBox="0 0 1024 1024" enable-background="new 0 0 1024 1024" xml:space="preserve">
<g>
	<path d="M351.491,896H128.189V281.379L283.39,128h484.533v160c0,17.673,14.327,32,32,32s32-14.327,32-32V96
		c0-17.673-14.327-32-32-32H270.245c-8.421,0-16.503,3.32-22.494,9.239L73.695,245.253c-6.083,6.012-9.506,14.208-9.506,22.761V928
		c0,17.673,14.327,32,32,32h255.302c17.673,0,32-14.327,32-32S369.164,896,351.491,896z"/>
	<path d="M450.2,415.761c0,17.673,14.327,32,32,32h445.795c17.673,0,32-14.327,32-32s-14.327-32-32-32H482.2
		C464.527,383.761,450.2,398.088,450.2,415.761z"/>
	<path d="M927.995,575.928H482.2c-17.673,0-32,14.327-32,32s14.327,32,32,32h445.795c17.673,0,32-14.327,32-32
		S945.668,575.928,927.995,575.928z"/>
	<path d="M927.995,768.039H482.2c-17.673,0-32,14.327-32,32s14.327,32,32,32h445.795c17.673,0,32-14.327,32-32
		S945.668,768.039,927.995,768.039z"/>
</g>
</svg>
