<?xml version="1.0" encoding="utf-8"?>
<!-- Generator: Adobe Illustrator 17.0.0, SVG Export Plug-In . SVG Version: 6.00 Build 0)  -->
<!DOCTYPE svg PUBLIC "-//W3C//DTD SVG 1.1//EN" "http://www.w3.org/Graphics/SVG/1.1/DTD/svg11.dtd">
<svg version="1.1" id="图层_1" xmlns="http://www.w3.org/2000/svg" xmlns:xlink="http://www.w3.org/1999/xlink" x="0px" y="0px"
	 width="1024px" height="1024px" viewBox="0 0 1024 1024" enable-background="new 0 0 1024 1024" xml:space="preserve">
<g>
	<path d="M928,127.785H543.98c0.007-0.268,0.02-0.534,0.02-0.803V95.5c0-17.673-14.327-32-32-32s-32,14.327-32,32v31.481
		c0,0.269,0.014,0.535,0.02,0.803H96c-17.673,0-32,14.327-32,32s14.327,32,32,32h64.037v736.047c0,17.673,14.327,32,32,32h640.124
		c17.673,0,32-14.327,32-32V320.223c0-17.673-14.327-32-32-32s-32,14.327-32,32v575.609H224.037V191.785H928
		c17.673,0,32-14.327,32-32S945.673,127.785,928,127.785z"/>
	<path d="M383.808,319.566v480.696c0,17.673,14.327,32,32,32s32-14.327,32-32V319.566c0-17.673-14.327-32-32-32
		S383.808,301.893,383.808,319.566z"/>
	<path d="M576,319.566v480.696c0,17.673,14.327,32,32,32s32-14.327,32-32V319.566c0-17.673-14.327-32-32-32S576,301.893,576,319.566
		z"/>
</g>
</svg>
