<?xml version="1.0" encoding="utf-8"?>
<!-- Generator: Adobe Illustrator 17.0.0, SVG Export Plug-In . SVG Version: 6.00 Build 0)  -->
<!DOCTYPE svg PUBLIC "-//W3C//DTD SVG 1.1//EN" "http://www.w3.org/Graphics/SVG/1.1/DTD/svg11.dtd">
<svg version="1.1" id="图层_1" xmlns="http://www.w3.org/2000/svg" xmlns:xlink="http://www.w3.org/1999/xlink" x="0px" y="0px"
	 width="1024px" height="1024px" viewBox="0 0 1024 1024" enable-background="new 0 0 1024 1024" xml:space="preserve">
<g>
	<path d="M865.701,294.71c-39.612-63.829-95.75-115.832-162.346-150.388c-15.684-8.139-35.002-2.022-43.142,13.665
		c-8.141,15.687-2.022,35.002,13.665,43.143C791.149,261.982,864,381.786,864,513.789c0,194.094-157.906,352-352,352
		c-194.093,0-352-157.906-352-352c0-131.463,72.418-251.042,188.993-312.07c15.658-8.197,21.706-27.534,13.509-43.192
		c-8.197-15.658-27.536-21.706-43.191-13.508c-66.237,34.676-122.05,86.659-161.405,150.329C117.406,360.867,96,436.403,96,513.789
		c0,56.146,11.003,110.629,32.705,161.936c20.954,49.541,50.945,94.026,89.139,132.221s82.68,68.186,132.221,89.14
		c51.307,21.7,105.79,32.704,161.936,32.704s110.629-11.004,161.936-32.704c49.541-20.954,94.026-50.945,132.221-89.14
		s68.186-82.68,89.14-132.221C916.996,624.418,928,569.935,928,513.789C928,436.139,906.457,360.382,865.701,294.71z"/>
	<path d="M512,537.052c17.673,0,32-14.327,32-32v-407.9c0-17.673-14.327-32-32-32s-32,14.327-32,32v407.9
		C480,522.725,494.327,537.052,512,537.052z"/>
</g>
</svg>
