<?xml version="1.0" encoding="utf-8"?>
<!-- Generator: Adobe Illustrator 17.0.0, SVG Export Plug-In . SVG Version: 6.00 Build 0)  -->
<!DOCTYPE svg PUBLIC "-//W3C//DTD SVG 1.1//EN" "http://www.w3.org/Graphics/SVG/1.1/DTD/svg11.dtd">
<svg version="1.1" id="图层_1" xmlns="http://www.w3.org/2000/svg" xmlns:xlink="http://www.w3.org/1999/xlink" x="0px" y="0px"
	 width="1024px" height="1024px" viewBox="0 0 1024 1024" enable-background="new 0 0 1024 1024" xml:space="preserve">
<path d="M960.043,64.115h-768v127.839H64.172v768h768v-127.84h127.871V64.115z M128.172,255.954h63.603v483.029
	c0,14.02,9.126,26.407,22.516,30.563c13.392,4.155,27.925-0.891,35.863-12.447l166.055-241.803v223.688
	c0,14.02,9.125,26.406,22.515,30.562c13.389,4.16,27.925-0.888,35.862-12.444L640.643,515.34v380.614h-512.47V255.954z
	 M768.172,895.954h-63.529V412.231c0-14.02-9.126-26.407-22.515-30.562c-13.39-4.153-27.924,0.889-35.862,12.444L480.209,635.875
	V412.171c0-14.02-9.126-26.407-22.516-30.563c-13.392-4.153-27.926,0.89-35.863,12.447L255.775,635.859V255.954h512.396V895.954z
	 M896.043,768.114h-63.871v-576.16H256.042v-63.839h640V768.114z"/>
</svg>
