<?xml version="1.0" encoding="utf-8"?>
<!-- Generator: Adobe Illustrator 17.0.0, SVG Export Plug-In . SVG Version: 6.00 Build 0)  -->
<!DOCTYPE svg PUBLIC "-//W3C//DTD SVG 1.1//EN" "http://www.w3.org/Graphics/SVG/1.1/DTD/svg11.dtd">
<svg version="1.1" id="图层_1" xmlns="http://www.w3.org/2000/svg" xmlns:xlink="http://www.w3.org/1999/xlink" x="0px" y="0px"
	 width="1024px" height="1024px" viewBox="0 0 1024 1024" enable-background="new 0 0 1024 1024" xml:space="preserve">
<g>
	<path d="M512,383.312c-77.355,0-150.087,30.013-204.797,84.511c-54.743,54.531-84.892,127.043-84.892,204.178
		s30.148,149.646,84.892,204.178c54.71,54.497,127.442,84.511,204.797,84.511c77.355,0,150.087-30.014,204.797-84.511
		c54.743-54.531,84.892-127.043,84.892-204.178s-30.148-149.647-84.892-204.178C662.087,413.325,589.355,383.312,512,383.312z
		 M512,896.689c-124.445,0-225.688-100.795-225.688-224.688S387.555,447.312,512,447.312c124.445,0,225.688,100.795,225.688,224.689
		S636.445,896.689,512,896.689z"/>
	<path d="M289.947,370.565c0-62.293-50.68-112.973-112.973-112.973C114.68,257.592,64,308.271,64,370.565
		c0,62.294,50.68,112.974,112.974,112.974C239.267,483.539,289.947,432.859,289.947,370.565z M176.974,419.539
		c-27.004,0-48.974-21.97-48.974-48.974s21.97-48.973,48.974-48.973s48.973,21.969,48.973,48.973S203.978,419.539,176.974,419.539z"
		/>
	<path d="M432.295,351.416c79.155,0,143.553-64.397,143.553-143.553c0-79.155-64.397-143.552-143.553-143.552
		c-79.155,0-143.552,64.397-143.552,143.552C288.743,287.019,353.14,351.416,432.295,351.416z M432.295,128.311
		c43.866,0,79.553,35.687,79.553,79.552c0,43.866-35.687,79.553-79.553,79.553c-43.865,0-79.552-35.687-79.552-79.553
		C352.743,163.998,388.43,128.311,432.295,128.311z"/>
	<path d="M790.29,64.035c-93.579,0-169.711,76.131-169.711,169.71s76.132,169.71,169.711,169.71
		c93.578,0,169.71-76.132,169.71-169.71S883.868,64.035,790.29,64.035z M790.29,339.456c-58.289,0-105.711-47.421-105.711-105.71
		c0-58.289,47.422-105.71,105.711-105.71S896,175.457,896,233.745C896,292.034,848.579,339.456,790.29,339.456z"/>
</g>
</svg>
