<?xml version="1.0" encoding="utf-8"?>
<!-- Generator: Adobe Illustrator 17.0.0, SVG Export Plug-In . SVG Version: 6.00 Build 0)  -->
<!DOCTYPE svg PUBLIC "-//W3C//DTD SVG 1.1//EN" "http://www.w3.org/Graphics/SVG/1.1/DTD/svg11.dtd">
<svg version="1.1" id="图层_1" xmlns="http://www.w3.org/2000/svg" xmlns:xlink="http://www.w3.org/1999/xlink" x="0px" y="0px"
	 width="1024px" height="1024px" viewBox="0 0 1024 1024" enable-background="new 0 0 1024 1024" xml:space="preserve">
<g>
	<path d="M766.816,288.011c0-17.673-14.327-32-32-32H287.329c-17.673,0-32,14.327-32,32s14.327,32,32,32h447.488
		C752.489,320.011,766.816,305.684,766.816,288.011z"/>
	<path d="M639.275,448.06c0-17.673-14.327-32-32-32H287.329c-17.673,0-32,14.327-32,32s14.327,32,32,32h319.947
		C624.948,480.06,639.275,465.733,639.275,448.06z"/>
	<path d="M287.329,576.109c-17.673,0-32,14.327-32,32s14.327,32,32,32H480c17.673,0,32-14.327,32-32s-14.327-32-32-32H287.329z"/>
	<path d="M949.681,293.941c-12.995-11.975-33.24-11.15-45.217,1.846L489.468,746.116c-11.977,12.996-11.15,33.241,1.846,45.218
		c6.151,5.668,13.925,8.468,21.677,8.468c8.628,0,17.232-3.469,23.541-10.314l414.994-450.329
		C963.503,326.162,962.677,305.917,949.681,293.941z"/>
	<path d="M802.945,896H129.867V128h673.079c17.673,0,32-14.327,32-32s-14.327-32-32-32H97.867c-17.673,0-32,14.327-32,32v832
		c0,17.673,14.327,32,32,32h705.079c17.673,0,32-14.327,32-32S820.618,896,802.945,896z"/>
</g>
</svg>
