<?xml version="1.0" encoding="utf-8"?>
<!-- Generator: Adobe Illustrator 17.0.0, SVG Export Plug-In . SVG Version: 6.00 Build 0)  -->
<!DOCTYPE svg PUBLIC "-//W3C//DTD SVG 1.1//EN" "http://www.w3.org/Graphics/SVG/1.1/DTD/svg11.dtd">
<svg version="1.1" id="图层_1" xmlns="http://www.w3.org/2000/svg" xmlns:xlink="http://www.w3.org/1999/xlink" x="0px" y="0px"
	 width="1024px" height="1024px" viewBox="0 0 1024 1024" enable-background="new 0 0 1024 1024" xml:space="preserve">
<path d="M958.586,325.865c0-2.121-0.211-4.236-0.63-6.315L911.837,90.464c-3.007-14.939-16.132-25.685-31.37-25.685H142.565
	c-15.238,0-28.363,10.746-31.371,25.685L65.076,319.549c-0.418,2.079-0.629,4.195-0.629,6.315c0,55.574,24.693,105.251,63.25,137.79
	v464.662c0,17.673,14.327,32,32,32h704.605c17.673,0,32-14.327,32-32V462.843C934.308,430.293,958.586,380.976,958.586,325.865z
	 M168.765,128.78h685.501l40.282,200.091c-1.498,61.111-48.615,110.328-106.319,110.328c-57.651,0-106.356-54.237-106.356-118.436
	c0-17.673-14.327-32-32-32s-32,14.327-32,32c0,64.199-48.705,118.436-106.357,118.436c-57.651,0-106.356-54.237-106.356-118.436
	c0-17.673-14.327-32-32-32c-17.673,0-32,14.327-32,32c0,64.199-48.705,118.436-106.356,118.436
	c-57.704,0-104.822-49.217-106.319-110.328L168.765,128.78z M832.303,896.316H191.697V497.441
	c13.773,3.752,28.218,5.757,43.106,5.757c45.808,0,88.966-19.749,121.524-55.607c6.16-6.784,11.779-13.966,16.832-21.481
	c5.053,7.516,10.672,14.697,16.832,21.481c32.559,35.859,75.717,55.607,121.524,55.607c45.808,0,88.966-19.749,121.525-55.607
	c6.159-6.784,11.778-13.966,16.832-21.481c5.054,7.515,10.672,14.697,16.832,21.481c32.559,35.859,75.717,55.607,121.524,55.607
	c15.237,0,30.009-2.105,44.073-6.03V896.316z"/>
</svg>
