<?xml version="1.0" encoding="utf-8"?>
<!-- Generator: Adobe Illustrator 17.0.0, SVG Export Plug-In . SVG Version: 6.00 Build 0)  -->
<!DOCTYPE svg PUBLIC "-//W3C//DTD SVG 1.1//EN" "http://www.w3.org/Graphics/SVG/1.1/DTD/svg11.dtd">
<svg version="1.1" id="图层_1" xmlns="http://www.w3.org/2000/svg" xmlns:xlink="http://www.w3.org/1999/xlink" x="0px" y="0px"
	 width="1024px" height="1024px" viewBox="0 0 1024 1024" enable-background="new 0 0 1024 1024" xml:space="preserve">
<g>
	<path d="M960.825,913.868l-132.13-132.13c27.611-32.34,49.964-68.471,66.6-107.803C916.996,622.629,928,568.146,928,512
		c0-55.453-10.742-109.283-31.914-160.035c15.135-11.378,28.214-25.39,38.565-41.492c16.574-25.781,25.334-55.667,25.334-86.429
		c0-88.224-71.775-160-160-160c-30.759,0-60.644,8.759-86.423,25.33c-16.099,10.349-30.11,23.425-41.488,38.557
		C621.311,106.747,567.468,96,512,96c-55.385,0-109.15,10.715-159.846,31.836c-29.956-39.849-77-63.792-127.85-63.792
		c-88.224,0-160,71.776-160,160c0,50.652,23.929,97.771,63.68,127.755C106.765,402.6,96,456.486,96,512
		c0,56.146,11.003,110.629,32.705,161.936c16.759,39.623,39.315,76,67.209,108.523L64.017,914.354
		c-12.497,12.497-12.497,32.759,0,45.255c6.249,6.25,14.437,9.373,22.627,9.373c8.188,0,16.38-3.125,22.627-9.372l131.866-131.865
		c32.625,28.053,69.141,50.722,108.927,67.55C401.372,916.996,455.854,928,512,928s110.629-11.004,161.936-32.704
		c40.078-16.951,76.843-39.822,109.649-68.161l131.987,131.987c6.248,6.249,14.438,9.373,22.627,9.373s16.379-3.124,22.627-9.373
		C973.322,946.626,973.322,926.364,960.825,913.868z M799.985,128.044c52.935,0,96,43.065,96,96
		c0,26.536-11.177,51.638-29.874,69.525c-16.886-27.345-36.917-52.688-59.956-75.726c-23.028-23.028-48.358-43.051-75.69-59.932
		C748.353,139.219,773.454,128.044,799.985,128.044z M128.304,224.044c0-52.935,43.065-96,96-96
		c26.672,0,51.608,10.975,69.474,29.714c-27.425,16.913-52.837,36.988-75.934,60.085c-23.002,23.002-43.005,48.3-59.874,75.595
		C139.276,275.554,128.304,250.607,128.304,224.044z M512,864c-194.093,0-352-157.906-352-352c0-194.093,157.907-352,352-352
		c194.094,0,352,157.907,352,352C864,706.094,706.094,864,512,864z"/>
	<path d="M512.062,224.033c-17.673,0-32,14.327-32,32v222.074H318.796c-17.673,0-32,14.327-32,32c0,17.673,14.327,32,32,32h193.265
		c17.673,0,32-14.327,32-32V256.033C544.062,238.36,529.734,224.033,512.062,224.033z"/>
</g>
</svg>
