<?xml version="1.0" encoding="utf-8"?>
<!-- Generator: Adobe Illustrator 17.0.0, SVG Export Plug-In . SVG Version: 6.00 Build 0)  -->
<!DOCTYPE svg PUBLIC "-//W3C//DTD SVG 1.1//EN" "http://www.w3.org/Graphics/SVG/1.1/DTD/svg11.dtd">
<svg version="1.1" id="图层_1" xmlns="http://www.w3.org/2000/svg" xmlns:xlink="http://www.w3.org/1999/xlink" x="0px" y="0px"
	 width="1024px" height="1024px" viewBox="0 0 1024 1024" enable-background="new 0 0 1024 1024" xml:space="preserve">
<path d="M942.311,275.378l-416-208c-9.008-4.505-19.613-4.505-28.622,0L290.294,171.076
	c-0.046,0.023-208.605,104.303-208.605,104.303C70.848,280.799,64,291.879,64,304v416c0,12.121,6.848,23.201,17.689,28.622l416,208
	c0.013,0.006,0.026,0.012,0.039,0.018c1.649,0.823,3.379,1.508,5.175,2.04c0.001,0,0.002,0,0.003,0.001
	c0.559,0.165,1.124,0.314,1.695,0.45c0.072,0.017,0.144,0.033,0.216,0.05c0.497,0.114,0.997,0.216,1.502,0.307
	c0.109,0.02,0.218,0.04,0.327,0.058c0.466,0.079,0.935,0.146,1.408,0.204c0.132,0.016,0.263,0.035,0.395,0.05
	c0.459,0.051,0.922,0.089,1.386,0.12c0.133,0.009,0.266,0.023,0.399,0.03c0.585,0.032,1.174,0.051,1.767,0.051
	s1.181-0.019,1.767-0.051c0.133-0.007,0.266-0.021,0.399-0.03c0.465-0.031,0.927-0.069,1.386-0.12
	c0.132-0.015,0.263-0.034,0.395-0.05c0.472-0.058,0.942-0.125,1.408-0.204c0.109-0.018,0.218-0.039,0.326-0.058
	c0.505-0.091,1.006-0.193,1.503-0.307c0.072-0.017,0.143-0.033,0.215-0.05c0.572-0.135,1.138-0.284,1.697-0.45c0,0,0,0,0,0
	c1.798-0.532,3.529-1.218,5.18-2.043c0.011-0.006,0.023-0.01,0.034-0.016l416-208C953.152,743.201,960,732.121,960,720V304
	C960,291.879,953.152,280.799,942.311,275.378z M512,131.777L856.486,304.02l-136.471,68.329l-343.999-172.58L512,131.777z
	 M512,476.499l-344.485-172.48l137.019-68.51l344.047,172.605L512,476.499z M128,355.809l352,176.242v344.172l-352-176V355.809z
	 M544,876.223V532.051l352-176.242v344.414L544,876.223z"/>
</svg>
