<?xml version="1.0" encoding="utf-8"?>
<!-- Generator: Adobe Illustrator 17.0.0, SVG Export Plug-In . SVG Version: 6.00 Build 0)  -->
<!DOCTYPE svg PUBLIC "-//W3C//DTD SVG 1.1//EN" "http://www.w3.org/Graphics/SVG/1.1/DTD/svg11.dtd">
<svg version="1.1" id="图层_1" xmlns="http://www.w3.org/2000/svg" xmlns:xlink="http://www.w3.org/1999/xlink" x="0px" y="0px"
	 width="1024px" height="1024px" viewBox="0 0 1024 1024" enable-background="new 0 0 1024 1024" xml:space="preserve">
<path d="M778.989,960c-2.658,0-5.322-0.661-7.739-1.997L512,814.693l-259.25,143.31c-5.363,2.965-11.946,2.606-16.956-0.923
	s-7.563-9.608-6.577-15.656l49.691-304.628L68.548,421.192c-4.188-4.292-5.624-10.566-3.72-16.253
	c1.904-5.687,6.828-9.832,12.756-10.737l290.065-44.318L497.516,73.202C500.152,67.586,505.796,64,512,64
	c6.203,0,11.848,3.586,14.483,9.202l129.868,276.683l290.065,44.318c5.928,0.906,10.852,5.05,12.756,10.737
	c1.903,5.687,0.467,11.96-3.721,16.253L745.091,636.796l49.69,304.628c0.986,6.048-1.567,12.127-6.576,15.656
	C785.454,959.019,782.227,960,778.989,960z M113.197,421.132l194.255,199.096c3.546,3.635,5.157,8.737,4.339,13.75l-45.687,280.078
	l238.154-131.648c4.817-2.662,10.665-2.662,15.481,0l238.154,131.648l-45.686-280.078c-0.817-5.013,0.792-10.115,4.339-13.75
	l194.255-199.096l-267.725-40.905c-5.274-0.806-9.8-4.188-12.066-9.018L512,117.656L392.989,371.209
	c-2.267,4.83-6.793,8.212-12.067,9.018L113.197,421.132z"/>
</svg>
