<?xml version="1.0" encoding="utf-8"?>
<!-- Generator: Adobe Illustrator 17.0.0, SVG Export Plug-In . SVG Version: 6.00 Build 0)  -->
<!DOCTYPE svg PUBLIC "-//W3C//DTD SVG 1.1//EN" "http://www.w3.org/Graphics/SVG/1.1/DTD/svg11.dtd">
<svg version="1.1" id="图层_1" xmlns="http://www.w3.org/2000/svg" xmlns:xlink="http://www.w3.org/1999/xlink" x="0px" y="0px"
	 width="1024px" height="1024px" viewBox="0 0 1024 1024" enable-background="new 0 0 1024 1024" xml:space="preserve">
<path d="M959.173,404.939c-1.904-5.687-6.828-9.832-12.756-10.737l-290.065-44.318L526.483,73.202C523.848,67.586,518.203,64,512,64
	c-6.204,0-11.848,3.586-14.484,9.202L367.648,349.884L77.583,394.202c-5.928,0.906-10.852,5.05-12.756,10.737
	c-1.904,5.687-0.468,11.96,3.72,16.253l210.361,215.604l-49.691,304.628c-0.986,6.048,1.567,12.127,6.577,15.656
	s11.593,3.888,16.956,0.923L512,814.693l259.25,143.31c2.417,1.336,5.081,1.997,7.739,1.997c3.237,0,6.465-0.981,9.216-2.92
	c5.009-3.529,7.563-9.608,6.576-15.656l-49.69-304.628l210.361-215.604C959.64,416.9,961.076,410.626,959.173,404.939z"/>
</svg>
