<?xml version="1.0" encoding="utf-8"?>
<!-- Generator: Adobe Illustrator 17.0.0, SVG Export Plug-In . SVG Version: 6.00 Build 0)  -->
<!DOCTYPE svg PUBLIC "-//W3C//DTD SVG 1.1//EN" "http://www.w3.org/Graphics/SVG/1.1/DTD/svg11.dtd">
<svg version="1.1" id="图层_1" xmlns="http://www.w3.org/2000/svg" xmlns:xlink="http://www.w3.org/1999/xlink" x="0px" y="0px"
	 width="1024px" height="1024px" viewBox="0 0 1024 1024" enable-background="new 0 0 1024 1024" xml:space="preserve">
<path d="M958.759,404.288c-2.855-8.53-10.242-14.747-19.134-16.105l-280.317-42.829L533.726,77.803
	C529.772,69.379,521.306,64,512,64c-9.305,0-17.772,5.379-21.726,13.803L364.692,345.354L84.375,388.183
	c-8.892,1.358-16.278,7.576-19.133,16.105c-2.856,8.53-0.702,17.941,5.58,24.379l203.541,208.614l-48.096,294.854
	c-1.479,9.071,2.351,18.19,9.864,23.484c7.514,5.292,17.39,5.83,25.434,1.385L512,818.567l250.436,138.438
	c3.626,2.004,7.623,2.995,11.609,2.995c4.857,0,9.697-1.473,13.824-4.38c7.514-5.294,11.344-14.413,9.864-23.484l-48.097-294.854
	l203.541-208.614C959.46,422.229,961.614,412.818,958.759,404.288z M706.822,612.43c-5.32,5.453-7.735,13.106-6.509,20.625
	l42.09,258.03L523.611,770.14c-3.613-1.997-7.612-2.995-11.611-2.995s-7.998,0.998-11.611,2.995L281.598,891.085l42.089-258.03
	c1.227-7.519-1.189-15.172-6.509-20.625L137.796,428.578l246.806-37.708c7.912-1.209,14.7-6.282,18.101-13.527L512,144.484
	l109.298,232.857c3.4,7.246,10.189,12.318,18.101,13.527l246.806,37.708L706.822,612.43z"/>
</svg>
