<?xml version="1.0" encoding="utf-8"?>
<!-- Generator: Adobe Illustrator 17.0.0, SVG Export Plug-In . SVG Version: 6.00 Build 0)  -->
<!DOCTYPE svg PUBLIC "-//W3C//DTD SVG 1.1//EN" "http://www.w3.org/Graphics/SVG/1.1/DTD/svg11.dtd">
<svg version="1.1" id="图层_1" xmlns="http://www.w3.org/2000/svg" xmlns:xlink="http://www.w3.org/1999/xlink" x="0px" y="0px"
	 width="1024px" height="1024px" viewBox="0 0 1024 1024" enable-background="new 0 0 1024 1024" xml:space="preserve">
<g>
	<path d="M809.626,782.733v-0.046c-40.687,0.046-73.586,32.958-73.586,73.657c0,40.653,32.898,73.565,73.586,73.565
		c40.646,0,73.636-32.912,73.636-73.565C883.262,815.646,850.272,782.733,809.626,782.733z"/>
	<path d="M339.27,782.733v-0.046c-40.687,0.046-73.586,32.958-73.586,73.657c0,40.653,32.898,73.565,73.586,73.565
		c40.646,0,73.636-32.912,73.636-73.565C412.906,815.646,379.916,782.733,339.27,782.733z"/>
	<path d="M954.318,239.98c-4.561-5.387-11.261-8.494-18.318-8.494H266.217L249.552,85.371c-1.383-12.124-11.643-21.28-23.845-21.28
		H88c-13.255,0-24,10.745-24,24s10.745,24,24,24h116.288l17.168,150.52l48.303,425.369c1.377,12.129,11.64,21.292,23.847,21.292
		h570.442c11.726,0,21.734-8.473,23.671-20.037l71.951-429.785C960.836,252.488,958.878,245.367,954.318,239.98z M843.732,661.271
		H315.035l-43.354-381.785h635.967L843.732,661.271z"/>
</g>
</svg>
