<?xml version="1.0" encoding="utf-8"?>
<!-- Generator: Adobe Illustrator 17.0.0, SVG Export Plug-In . SVG Version: 6.00 Build 0)  -->
<!DOCTYPE svg PUBLIC "-//W3C//DTD SVG 1.1//EN" "http://www.w3.org/Graphics/SVG/1.1/DTD/svg11.dtd">
<svg version="1.1" id="图层_1" xmlns="http://www.w3.org/2000/svg" xmlns:xlink="http://www.w3.org/1999/xlink" x="0px" y="0px"
	 width="1024px" height="1024px" viewBox="0 0 1024 1024" enable-background="new 0 0 1024 1024" xml:space="preserve">
<path d="M959.517,322.169c0-1.593-0.158-3.183-0.474-4.745l-47.111-233.62c-2.259-11.201-12.101-19.256-23.526-19.256H134.627
	c-11.426,0-21.268,8.055-23.526,19.256L63.99,317.424c-0.315,1.562-0.474,3.151-0.474,4.745c0,55.504,25.348,104.951,64.612,136.465
	v477.914c0,13.255,10.745,24,24,24h719.765c13.255,0,24-10.745,24-24V457.845C934.596,426.297,959.517,377.209,959.517,322.169z
	 M111.536,324.466l42.735-211.918h714.491l42.735,211.918c-1.164,67.432-53.343,121.913-117.314,121.913
	c-63.601,0-117.333-59.264-117.333-129.414c0-13.255-10.745-24-24-24s-24,10.745-24,24c0,70.15-53.732,129.414-117.333,129.414
	s-117.333-59.264-117.333-129.414c0-13.255-10.745-24-24-24s-24,10.745-24,24c0,70.15-53.732,129.414-117.333,129.414
	C164.878,446.379,112.7,391.898,111.536,324.466z M847.893,912.548H176.128V485.401c16.565,5.82,34.296,8.979,52.722,8.979
	c44.305,0,86.103-19.129,117.693-53.863c9.125-10.032,17.033-20.959,23.641-32.561c6.607,11.602,14.516,22.529,23.64,32.561
	c31.591,34.734,73.388,53.863,117.693,53.863c44.305,0,86.103-19.129,117.693-53.863c9.125-10.032,17.033-20.958,23.641-32.561
	c6.607,11.602,14.516,22.528,23.641,32.561c31.59,34.734,73.388,53.863,117.692,53.863c18.794,0,36.862-3.291,53.71-9.335V912.548z"
	/>
</svg>
