<?xml version="1.0" encoding="utf-8"?>
<!-- Generator: Adobe Illustrator 17.0.0, SVG Export Plug-In . SVG Version: 6.00 Build 0)  -->
<!DOCTYPE svg PUBLIC "-//W3C//DTD SVG 1.1//EN" "http://www.w3.org/Graphics/SVG/1.1/DTD/svg11.dtd">
<svg version="1.1" id="图层_1" xmlns="http://www.w3.org/2000/svg" xmlns:xlink="http://www.w3.org/1999/xlink" x="0px" y="0px"
	 width="1024px" height="1024px" viewBox="0 0 1024 1024" enable-background="new 0 0 1024 1024" xml:space="preserve">
<circle opacity="0.5" fill="#FFFFFF" cx="512" cy="512" r="443"/>
<path fill="#BABABA" d="M512,965c-61.152,0-120.478-11.978-176.33-35.601c-53.943-22.816-102.389-55.479-143.99-97.08
	S117.417,742.273,94.6,688.33C70.978,632.479,59,573.152,59,512s11.978-120.478,35.601-176.33
	c22.816-53.943,55.479-102.389,97.08-143.99s90.046-74.263,143.99-97.08C391.522,70.978,450.848,59,512,59
	s120.479,11.978,176.33,35.601c53.943,22.816,102.389,55.479,143.989,97.08c41.602,41.601,74.264,90.046,97.08,143.99
	C953.022,391.522,965,450.848,965,512s-11.978,120.479-35.601,176.33c-22.816,53.943-55.479,102.389-97.08,143.989
	c-41.601,41.602-90.046,74.264-143.989,97.08C632.479,953.022,573.152,965,512,965z M512,69C267.729,69,69,267.729,69,512
	s198.729,443,443,443s443-198.729,443-443S756.271,69,512,69z"/>
<g>
	<path fill="#646464" d="M734.817,302.479H287.206c-9.941,0-18,8.059-18,18s8.059,18,18,18h447.61c9.942,0,18.001-8.059,18.001-18
		C752.817,310.538,744.758,302.479,734.817,302.479z"/>
	<path fill="#646464" d="M524.728,402.659c-7.03-7.029-18.427-7.029-25.456,0L334.306,567.625c-7.029,7.029-7.029,18.426,0,25.455
		s18.427,7.029,25.456,0l134.242-134.241c0,0.028-0.004,0.055-0.004,0.083V799.5c0,9.941,8.059,18,18,18c9.941,0,18-8.059,18-18
		V458.922c0-0.028-0.004-0.055-0.004-0.083l134.242,134.242c3.515,3.514,8.122,5.272,12.728,5.272s9.213-1.758,12.728-5.273
		c7.03-7.029,7.03-18.426,0-25.455L524.728,402.659z M512,440.922c-0.028,0-0.055,0.004-0.083,0.004l0.083-0.083l0.083,0.083
		C512.055,440.926,512.028,440.922,512,440.922z"/>
</g>
</svg>
