<?xml version="1.0" encoding="utf-8"?>
<!-- Generator: Adobe Illustrator 17.0.0, SVG Export Plug-In . SVG Version: 6.00 Build 0)  -->
<!DOCTYPE svg PUBLIC "-//W3C//DTD SVG 1.1//EN" "http://www.w3.org/Graphics/SVG/1.1/DTD/svg11.dtd">
<svg version="1.1" id="图层_1" xmlns="http://www.w3.org/2000/svg" xmlns:xlink="http://www.w3.org/1999/xlink" x="0px" y="0px"
	 width="1024px" height="1024px" viewBox="0 0 1024 1024" enable-background="new 0 0 1024 1024" xml:space="preserve">
<g>
	<path d="M415.892,63.953h-320c-17.673,0-32,14.327-32,32v320c0,17.673,14.327,32,32,32h320c17.673,0,32-14.327,32-32v-320
		C447.892,78.28,433.565,63.953,415.892,63.953z M383.892,383.953h-256v-256h256V383.953z"/>
	<path d="M608.123,191.558h320.688c17.673,0,32-14.327,32-32s-14.327-32-32-32H608.123c-17.673,0-32,14.327-32,32
		S590.45,191.558,608.123,191.558z"/>
	<path d="M928.812,320.284H608.123c-17.673,0-32,14.327-32,32s14.327,32,32,32h320.688c17.673,0,32-14.327,32-32
		S946.484,320.284,928.812,320.284z"/>
	<path d="M415.892,575.802h-320c-17.673,0-32,14.327-32,32v320c0,17.673,14.327,32,32,32h320c17.673,0,32-14.327,32-32v-320
		C447.892,590.129,433.565,575.802,415.892,575.802z M383.892,895.802h-256v-256h256V895.802z"/>
	<path d="M928.812,639.407H608.123c-17.673,0-32,14.327-32,32s14.327,32,32,32h320.688c17.673,0,32-14.327,32-32
		S946.484,639.407,928.812,639.407z"/>
	<path d="M928.812,832.134H608.123c-17.673,0-32,14.327-32,32s14.327,32,32,32h320.688c17.673,0,32-14.327,32-32
		S946.484,832.134,928.812,832.134z"/>
</g>
</svg>
